<svg xmlns="http://www.w3.org/2000/svg" width="30" height="31" viewBox="0 0 30 31" fill="none">
  <g clip-path="url(#clip0_452_10526)">
    <path d="M28.892 1.87087C27.8974 0.876257 24.8928 0.200103 20.6397 1.06087C15.9112 2.01856 11.1712 4.59395 7.63816 8.12933C4.06354 11.7016 1.52277 16.167 0.482005 20.7016C-0.401841 24.5486 -0.0510719 27.957 1.37739 29.3855C2.74816 30.7563 6.08047 31.0286 9.86508 30.0778C14.3212 28.9609 18.7428 26.3786 22.3128 22.8063C25.8897 19.2293 28.4397 14.7224 29.492 10.1186C30.3297 6.45395 30.0828 3.06164 28.892 1.87087ZM22.6151 12.0732C22.2643 12.4239 21.692 12.4239 21.3412 12.0709L20.492 11.2216L19.0059 12.7078L19.8551 13.557C20.2082 13.9101 20.2082 14.4801 19.8574 14.8309C19.5043 15.1839 18.9343 15.1816 18.5812 14.8286L17.732 13.9793L16.2482 15.4632L17.0974 16.3124C17.4505 16.6655 17.4505 17.2355 17.0974 17.5886C16.7466 17.9393 16.1743 17.9416 15.8212 17.5886L14.972 16.7393L13.4882 18.2232L14.3374 19.0724C14.6905 19.4255 14.6905 19.9955 14.3374 20.3486C13.9866 20.6993 13.4143 20.6993 13.0635 20.3463L12.2143 19.497L10.7305 20.9809L11.5797 21.8301C11.9328 22.1832 11.9328 22.7532 11.582 23.1063C11.2289 23.4593 10.6612 23.457 10.3082 23.1039L7.33585 20.1339C6.98508 19.7832 6.98277 19.2132 7.33585 18.8624C7.68893 18.5093 8.25662 18.5093 8.6097 18.8624L9.45893 19.7116L10.9428 18.2278L10.0935 17.3786C9.74277 17.0278 9.74277 16.4578 10.0935 16.107C10.4466 15.754 11.0166 15.7539 11.3674 16.1047L12.2166 16.9539L13.7005 15.4701L12.8512 14.6209C12.5005 14.2701 12.5005 13.6978 12.8535 13.347C13.2066 12.9939 13.7766 12.9939 14.1274 13.3447L14.9766 14.1939L16.4605 12.7101L15.6112 11.8609C15.2605 11.5101 15.2605 10.9401 15.6112 10.587C15.962 10.2363 16.532 10.2363 16.8828 10.587L17.732 11.4363L19.2182 9.9501L18.3689 9.10087C18.0182 8.7501 18.0182 8.1801 18.3689 7.82933C18.7197 7.47856 19.2897 7.47856 19.6428 7.82933L22.6128 10.7993C22.9659 11.1524 22.9659 11.7224 22.6151 12.0732Z" fill="#000"/>
  </g>
  <defs>
    <clipPath id="clip0_452_10526">
      <rect width="30" height="30" fill="white" transform="translate(0 0.666504)"/>
    </clipPath>
  </defs>
</svg>