<svg width="21" height="20" viewBox="0 0 21 20" fill="none" xmlns="http://www.w3.org/2000/svg">
<g id="Sport Icons 20x20" clip-path="url(#clip0_1851_3352)">
<g id="Vector">
<path d="M19.497 11.7945L19.2862 12.6068L18.6201 12.433L18.8478 11.5545C18.5478 11.436 18.2508 11.3099 17.957 11.173L17.6893 11.8914L17.0431 11.6514L17.3339 10.8714C17.0447 10.7237 16.7601 10.5668 16.4801 10.4022L16.1555 11.0391L15.5401 10.7268L15.8893 10.0407C15.6155 9.86373 15.3447 9.68065 15.0801 9.48835L14.6985 10.056L14.1262 9.66988L14.5293 9.07142C14.2708 8.86989 14.0185 8.66065 13.7708 8.44373L13.3231 8.95296L12.8062 8.49604L13.2601 7.97912C13.1308 7.85758 13.0047 7.7345 12.8801 7.60989C12.7724 7.50219 12.6662 7.3945 12.5616 7.28373L12.0431 7.73912L11.5862 7.22219L12.0955 6.77604C11.8785 6.52989 11.6678 6.27758 11.4647 6.02065L10.8647 6.42373L10.4785 5.85142L11.0462 5.46989C10.8539 5.20681 10.6693 4.93758 10.4908 4.66373L9.80315 5.01296L9.4893 4.39758L10.1262 4.0745C9.96007 3.7945 9.80161 3.51142 9.65238 3.22219L8.8693 3.5145L8.6293 2.86989L9.34622 2.60219C9.2093 2.30989 9.08007 2.01296 8.96161 1.71296L8.08315 1.94219L7.9093 1.27604L8.71853 1.06527C8.62161 0.788347 8.53392 0.509886 8.45238 0.228347C4.58161 1.03142 1.53084 4.08065 0.724685 7.95296C1.00776 8.0345 1.28776 8.12373 1.56469 8.22065L1.77545 7.41142L2.44161 7.58527L2.21392 8.46373C2.51392 8.58373 2.81084 8.71142 3.10315 8.84835L3.37084 8.13142L4.01699 8.37142L3.72469 9.1545C4.01238 9.30373 4.29699 9.46219 4.57699 9.62835L4.90007 8.99142L5.51545 9.30527L5.16622 9.9945C5.44007 10.1714 5.7093 10.3576 5.97392 10.5499L6.35545 9.98219L6.92776 10.3683L6.52469 10.9683C6.78161 11.1714 7.03392 11.3822 7.28007 11.5991L7.72622 11.0899L8.24315 11.5468L7.78776 12.0653C7.89699 12.1699 8.00622 12.276 8.11392 12.3837C8.23853 12.5083 8.36161 12.636 8.48315 12.7637L9.00007 12.3099L9.45699 12.8268L8.94776 13.2745C9.16315 13.5222 9.37238 13.7745 9.57546 14.033L10.1739 13.6299L10.5601 14.2022L9.99238 14.5853C10.1847 14.8499 10.3678 15.1207 10.5447 15.3945L11.2308 15.0453L11.5431 15.6607L10.9062 15.9837C11.0708 16.2637 11.2278 16.5499 11.3755 16.8376L12.1555 16.5468L12.3955 17.1914L11.677 17.4591C11.8124 17.753 11.9401 18.0499 12.0585 18.3499L12.9355 18.1207L13.1093 18.7868L12.297 18.9976C12.3847 19.2545 12.4662 19.5114 12.5416 19.7714C12.6785 19.7422 12.8139 19.7114 12.9493 19.6776C12.9955 19.6668 13.0401 19.653 13.0847 19.6407C13.1847 19.6145 13.2847 19.5853 13.3831 19.556C13.4308 19.5422 13.4785 19.5268 13.5262 19.513C13.6416 19.476 13.7555 19.4376 13.8693 19.3976C13.8939 19.3883 13.9185 19.3807 13.9416 19.373C14.077 19.3237 14.2108 19.2699 14.3431 19.2145C14.3816 19.1976 14.4201 19.1807 14.4585 19.1637C14.5585 19.1207 14.657 19.076 14.7555 19.0299C14.7939 19.0114 14.8339 18.993 14.8724 18.9745C14.9939 18.916 15.1139 18.8545 15.2324 18.7899C15.2416 18.7853 15.2508 18.7807 15.2601 18.776C15.3893 18.7053 15.517 18.6314 15.6431 18.556C15.6724 18.5376 15.7016 18.5207 15.7308 18.5022C15.8308 18.4407 15.9293 18.3776 16.0262 18.313C16.0555 18.2945 16.0831 18.2745 16.1124 18.256C16.3585 18.0883 16.597 17.9099 16.8262 17.7222C16.8447 17.7068 16.8647 17.6899 16.8831 17.6745C16.9831 17.5914 17.0816 17.5053 17.1785 17.4191C17.1955 17.4037 17.2124 17.3899 17.2293 17.3745C17.4555 17.1683 17.6724 16.9514 17.8801 16.7237C17.8878 16.716 17.8939 16.7083 17.9016 16.6991C18.0016 16.5883 18.1001 16.4745 18.1955 16.3591C18.1985 16.3545 18.2016 16.3514 18.2047 16.3468C19.2139 15.1222 19.937 13.653 20.2708 12.0407C20.0093 11.9637 19.7524 11.8822 19.497 11.7945Z" fill="#000"/>
<path d="M20.4262 11.0068C20.4601 10.676 20.477 10.3391 20.477 9.99912C20.477 4.48681 16.0078 0.0175781 10.4955 0.0175781C10.1539 0.0175781 9.81699 0.0345012 9.48469 0.0683474C9.55853 0.314501 9.63853 0.560655 9.72469 0.802194L10.6001 0.574501L10.7739 1.24066L9.97238 1.44835C10.0816 1.7145 10.197 1.97758 10.3201 2.23758L11.0985 1.94681L11.3385 2.59296L10.6308 2.85758C10.7647 3.10989 10.9047 3.35758 11.0524 3.60373L11.737 3.25604L12.0508 3.87142L11.4216 4.19142C11.577 4.42835 11.7401 4.66219 11.9078 4.89142L12.5047 4.48989L12.8908 5.06219L12.3278 5.44066C12.5047 5.66219 12.6862 5.87912 12.8755 6.09296L13.3924 5.63912L13.8493 6.15604L13.3431 6.60066C13.4324 6.6945 13.5231 6.78681 13.6139 6.87758C13.7231 6.98681 13.8339 7.0945 13.9462 7.20066L14.3908 6.69296L14.9078 7.14989L14.4555 7.66527C14.6693 7.85143 14.8878 8.0345 15.1093 8.20989L15.4893 7.64527L16.0616 8.03142L15.6601 8.62835C15.8908 8.79604 16.1247 8.95758 16.3631 9.11142L16.6847 8.47912L17.3001 8.79296L16.9524 9.47758C17.1985 9.62373 17.4478 9.76219 17.7016 9.8945L17.9662 9.18373L18.6108 9.42373L18.3216 10.2007C18.5816 10.3222 18.8462 10.4376 19.1124 10.5453L19.3216 9.74219L19.9878 9.91604L19.7601 10.7883C19.9785 10.8683 20.2016 10.9407 20.4262 11.0068Z" fill="#000"/>
<path d="M11.2908 19.2576L10.4185 19.4837L10.2447 18.8176L11.0478 18.6083C10.9401 18.3422 10.8247 18.0776 10.7031 17.8176L9.92622 18.1068L9.68622 17.4622L10.397 17.1976C10.2647 16.9453 10.1247 16.6945 9.97853 16.4499L9.29392 16.7976L8.98007 16.1822L9.61238 15.8607C9.45699 15.6237 9.29545 15.3883 9.1293 15.1591L8.53238 15.5607L8.14622 14.9883L8.71084 14.6083C8.53545 14.3868 8.35392 14.1683 8.16622 13.9545L7.65084 14.4068L7.19392 13.8883L7.70161 13.4437C7.59545 13.3314 7.48776 13.2207 7.37853 13.1114C7.28776 13.0207 7.19546 12.9299 7.10161 12.8407L6.65699 13.3468L6.14007 12.8899L6.59392 12.373C6.38161 12.1853 6.16315 12.0022 5.94161 11.8268L5.56315 12.3899L4.99084 12.0053L5.39238 11.4068C5.16315 11.2391 4.9293 11.076 4.69238 10.9191L4.37238 11.5483L3.75699 11.236L4.10469 10.5514C3.86007 10.4037 3.61084 10.2637 3.35853 10.1299L3.09392 10.8376L2.4493 10.5976L2.74007 9.81912C2.48007 9.69604 2.21699 9.57912 1.95084 9.47143L1.74315 10.273L1.07699 10.0991L1.30469 9.22373C1.06007 9.13758 0.813916 9.05604 0.566224 8.98219C0.530839 9.31604 0.513916 9.65604 0.513916 9.99912C0.513916 13.9607 2.82315 17.3837 6.16776 18.996C6.22776 19.0253 6.2893 19.0514 6.35084 19.0791C6.43699 19.1191 6.52161 19.1591 6.6093 19.196C6.75238 19.256 6.89699 19.313 7.04161 19.3668C7.04776 19.3699 7.05545 19.373 7.06161 19.3745C8.13238 19.7668 9.2893 19.9807 10.4955 19.9807C10.8385 19.9807 11.1755 19.9637 11.5093 19.9299C11.4416 19.7037 11.3693 19.4807 11.2908 19.2576Z" fill="#000"/>
</g>
</g>
<defs>
<clipPath id="clip0_1851_3352">
<rect width="20" height="20" fill="#000" transform="translate(0.5)"/>
</clipPath>
</defs>
</svg>
