<svg width="20" height="20" viewBox="0 0 20 20" fill="none" xmlns="http://www.w3.org/2000/svg">
<g id="Sport Icons 20x20" clip-path="url(#clip0_1851_3365)">
<g id="Vector">
<path d="M3.063 10.2077C1.70146 11.2338 0.95223 13.5185 1.97992 15.9492C3.26608 17.6846 5.103 18.9862 7.22915 19.6015C5.31685 17.3154 4.41531 14.0877 4.383 9.61077C3.91377 9.70154 3.47069 9.9 3.063 10.2077Z" fill="#000"/>
<path d="M9.97377 0C9.67223 0.00153846 9.37838 0.178462 9.30608 0.224615C9.29992 0.227692 9.29531 0.232308 9.28915 0.235385C9.28762 0.236923 9.24608 0.26 9.17531 0.309231C9.14915 0.329231 9.12761 0.344615 9.10915 0.356923C8.78608 0.589231 8.07223 1.17077 7.36761 2.20769C7.13992 2.54308 6.90146 2.94462 6.67223 3.41846C8.15223 3.39077 8.80454 3.12923 9.72608 2.76154C10.4292 2.48 11.3045 2.12923 12.7661 1.81077C13.8568 1.57385 14.8353 1.60615 15.6784 1.77538C14.2815 0.806154 12.6245 0.184615 10.8322 0.0353846C10.7907 0.0323077 10.7492 0.0292308 10.7076 0.0261538C10.6168 0.02 10.5245 0.0138462 10.4338 0.0107692C10.3276 0.00615385 10.2215 0.00307692 10.1153 0.00307692C10.0768 0.00153846 10.0399 0 10.0015 0C9.99223 0 9.983 0 9.97377 0Z" fill="#000"/>
<path d="M2.42454 9.36154C2.96761 8.95231 3.63838 8.65385 4.39992 8.54769C4.423 8.00769 4.46915 7.49539 4.53531 7.01231C2.27992 7.07692 1.07069 7.50769 0.216846 7.99846C0.0860765 8.64462 0.0168457 9.31385 0.0168457 10C0.0168457 11.0462 0.178384 12.0554 0.476846 13.0031C0.486076 12.9154 0.495307 12.8277 0.509153 12.7415C0.719923 11.3338 1.39992 10.1338 2.42454 9.36154Z" fill="#000"/>
<path d="M9.00915 11.6462C7.82146 10.4262 6.58761 9.72769 5.44146 9.58154C5.47377 14.6031 6.57838 17.8446 9.05531 19.9523C9.36761 19.9815 9.683 19.9985 10.0015 19.9985C10.0415 19.9985 10.0799 19.9969 10.1184 19.9954C10.2276 19.9938 10.3353 19.9923 10.443 19.9877C10.5415 19.9831 10.6415 19.9769 10.7384 19.9692C10.7799 19.9662 10.8199 19.9631 10.8615 19.96C10.9845 19.9492 11.1061 19.9369 11.2276 19.9215H11.2292C12.9907 19.7031 14.6107 19.0262 15.9661 18.0138C14.5076 16.8754 12.143 14.8662 9.00915 11.6462Z" fill="#000"/>
<path d="M17.9353 3.92769C17.1553 3.33538 15.3999 2.32462 12.9922 2.84769C11.6168 3.14615 10.8215 3.46462 10.1199 3.74615C9.103 4.15385 8.28146 4.48154 6.38146 4.48154C6.33069 4.48154 6.27838 4.48154 6.22761 4.48C6.06762 4.92462 5.92146 5.41538 5.80146 5.95231C7.00915 5.98154 8.37377 6.09231 9.90608 6.28615C15.3292 6.97077 18.3599 8.46 19.983 9.64615C19.9092 7.5 19.1568 5.52462 17.9353 3.92769Z" fill="#000"/>
<path d="M2.63069 3.26769C2.62915 3.26615 2.62761 3.26462 2.62608 3.26154C1.74146 4.23231 1.04608 5.37846 0.595307 6.64154C0.99223 6.48308 1.44915 6.34154 1.99069 6.22769C2.77377 6.06462 3.67992 5.97231 4.71685 5.95077C4.83223 5.39692 4.97223 4.88769 5.12762 4.42C4.02915 4.28154 3.19069 3.89538 2.63069 3.26769Z" fill="#000"/>
<path d="M16.8061 17.3154C18.543 15.6954 19.703 13.4646 19.943 10.9662C18.7215 9.88308 15.8615 8.10923 9.77223 7.34C8.11685 7.13077 6.74915 7.02923 5.60608 7.00769C5.53685 7.48308 5.48608 7.98923 5.46146 8.52769C6.763 8.65539 8.24761 9.34308 9.76915 10.9077C12.9815 14.2092 15.3953 16.2292 16.8061 17.3154Z" fill="#000"/>
<path d="M6.53223 1.55385C6.88608 1.04154 7.23992 0.630769 7.55992 0.304615C5.98454 0.701538 4.56146 1.47385 3.38454 2.51692C3.40146 2.53692 3.41685 2.55692 3.43531 2.57692C3.86146 3.04308 4.56146 3.31692 5.51838 3.39385C5.84146 2.64769 6.19838 2.03692 6.53223 1.55385Z" fill="#000"/>
</g>
</g>
<defs>
<clipPath id="clip0_1851_3365">
<rect width="20" height="20" fill="#000"/>
</clipPath>
</defs>
</svg>
