<svg width="27" height="27" viewBox="0 0 27 27" fill="none" xmlns="http://www.w3.org/2000/svg">
<g opacity="1">
<path d="M26.677 21.1448V9.42802C26.677 8.98166 26.3422 8.6469 25.8959 8.6469C25.4495 8.6469 25.1148 8.98166 25.1148 9.42802V21.1448C25.1148 23.2649 23.441 24.9387 21.3208 24.9387H6.03323C3.91305 24.9387 2.23923 23.2649 2.23923 21.1448V5.8572C2.23923 3.73703 3.91305 2.06321 6.03323 2.06321H18.5311C18.9774 2.06321 19.3122 1.72844 19.3122 1.28209C19.2006 0.835741 18.8658 0.500977 18.5311 0.500977H6.03323C3.02035 0.500977 0.677002 2.84432 0.677002 5.8572V21.1448C0.677002 24.046 3.02035 26.501 6.03323 26.501H21.3208C24.2221 26.501 26.677 24.046 26.677 21.1448ZM24.78 5.52244C25.0032 5.18767 25.0032 4.85291 24.8916 4.51814C24.78 3.9602 24.2221 3.51385 23.5525 3.51385C23.441 3.51385 23.3294 3.51385 23.2178 3.51385C18.7543 4.74132 15.6298 9.42802 13.7328 13.1104L13.1749 14.3379L12.2822 13.3336C10.9431 11.6598 9.26928 10.3207 7.26069 9.42802C7.03752 9.31643 6.92593 9.31643 6.70275 9.31643C6.14481 9.31643 5.69846 9.65119 5.47529 10.0975C5.3637 10.4323 5.3637 10.7671 5.47529 11.1018C5.58687 11.4366 5.92164 11.6598 6.2564 11.883C9.9388 13.4452 12.2822 17.9087 12.2822 18.0203C12.5053 18.4666 12.9517 18.8014 13.5096 18.8014C13.5096 18.8014 13.5096 18.8014 13.6212 18.8014C14.1791 18.8014 14.6255 18.4666 14.8487 17.9087C14.8487 17.7971 18.3079 7.97737 24.1105 6.30355C24.3337 6.08038 24.6684 5.8572 24.78 5.52244Z" fill="#000"/>
</g>
</svg>
