<svg width="8" height="10" viewBox="0 0 8 10" fill="none" xmlns="http://www.w3.org/2000/svg">
<g id="App-Icon-Sport-Cricket" clip-path="url(#clip0_1851_2106)">
<g id="Vector">
<path d="M5.97245 3.10847L5.51925 2.55662C5.33737 2.49628 5.16274 2.39327 5.00744 2.24464C4.93131 2.17179 4.82375 2.17547 4.75547 2.25935L0.199321 7.80729C0.134665 7.88602 0.124393 8.0111 0.178172 8.10087C0.340719 8.37385 0.532875 8.64904 0.751014 8.91466C0.969153 9.18029 1.19515 9.41354 1.41933 9.6122C1.49305 9.67769 1.59577 9.66518 1.66043 9.58645L6.21658 4.03852C6.28486 3.95537 6.28848 3.8244 6.22866 3.73169C6.1066 3.54185 6.022 3.32994 5.97245 3.10847ZM4.41345 4.57565C4.38566 4.60508 4.34396 4.60288 4.31798 4.57124C4.292 4.5396 4.29018 4.48809 4.31435 4.45498L5.38088 2.95689L5.64373 3.27697L4.41345 4.57565Z" fill="#000"/>
<path d="M7.9395 0.399968L7.74372 0.161569C7.66214 0.062236 7.53041 0.0637076 7.45004 0.163776L5.66384 2.39472H5.66565L6.10556 2.93038L7.93768 0.757567C8.01986 0.659705 8.02107 0.498565 7.9395 0.399968Z" fill="#000"/>
</g>
</g>
<defs>
<clipPath id="clip0_1851_2106">
<rect width="7.85542" height="9.5654" fill="#000" transform="translate(0.144531 0.0878906)"/>
</clipPath>
</defs>
</svg>
