<svg xmlns="http://www.w3.org/2000/svg" width="21" height="20" viewBox="0 0 21 20" fill="none">
  <g clip-path="url(#clip0_2588_7810)">
    <path d="M19.1916 8.82494L11.6832 1.31661C11.0582 0.691607 9.95824 0.683273 9.3249 1.31661L1.8249 8.81661C1.1749 9.46661 1.1749 10.5166 1.8249 11.1666L9.3249 18.6666C9.6499 18.9916 10.0749 19.1499 10.4999 19.1499C10.9249 19.1499 11.3499 18.9916 11.6749 18.6666L19.1666 11.1749C19.8249 10.5416 19.8332 9.49161 19.1916 8.82494ZM10.5082 17.4916L3.00824 9.99161L10.5082 2.49161L18.0082 9.99161L10.5082 17.4916ZM7.16657 9.16661V12.4999H8.83324V9.99994H12.1666V12.0833L15.0832 9.16661L12.1666 6.24994V8.33327H7.9999C7.54157 8.33327 7.16657 8.70827 7.16657 9.16661Z" fill="#000"/>
  </g>
  <defs>
    <clipPath id="clip0_2588_7810">
      <rect width="20" height="20" fill="white" transform="translate(0.5)"/>
    </clipPath>
  </defs>
</svg>