<svg xmlns="http://www.w3.org/2000/svg" width="16" height="16" viewBox="0 0 16 16" fill="none">
  <mask id="mask0_2927_5923" style="mask-type:alpha" maskUnits="userSpaceOnUse" x="0" y="0" width="16" height="16">
    <rect y="0.240234" width="16" height="15.75" fill="#D9D9D9"/>
  </mask>
  <g mask="url(#mask0_2927_5923)">
    <path d="M9.60414 12.052C9.1572 12.052 8.77817 11.9001 8.46706 11.5963C8.15595 11.2925 8.00039 10.9206 8.00039 10.4806C8.00039 10.0407 8.1547 9.66758 8.46331 9.36133C8.77191 9.05508 9.14969 8.90195 9.59664 8.90195C10.0436 8.90195 10.4226 9.05385 10.7337 9.35764C11.0448 9.66141 11.2004 10.0333 11.2004 10.4733C11.2004 10.9132 11.0461 11.2863 10.7375 11.5926C10.4289 11.8988 10.0511 12.052 9.60414 12.052ZM3.60039 14.4145C3.27039 14.4145 2.98789 14.2969 2.75289 14.0617C2.51789 13.8266 2.40039 13.5504 2.40039 13.2332V4.5707C2.40039 4.25352 2.51789 3.97734 2.75289 3.74219C2.98789 3.50703 3.27039 3.38945 3.60039 3.38945H4.80039V1.81445H6.00039V3.38945H10.0004V1.81445H11.2004V3.38945H12.4004C12.7304 3.38945 13.0129 3.50703 13.2479 3.74219C13.4829 3.97734 13.6004 4.25352 13.6004 4.5707V13.2332C13.6004 13.5504 13.4829 13.8266 13.2479 14.0617C13.0129 14.2969 12.7304 14.4145 12.4004 14.4145H3.60039ZM3.60039 13.2332H12.4004V7.32695H3.60039V13.2332Z" fill="#000"/>
  </g>
</svg>