<svg width="20" height="20" viewBox="0 0 20 20" fill="none" xmlns="http://www.w3.org/2000/svg">
<g id="Sport Icons 20x20">
<path id="Vector" d="M10.0034 14.5865C10.1951 14.5865 10.3584 14.5157 10.4933 14.3742C10.6282 14.2327 10.6957 14.0573 10.6957 13.8481C10.6957 13.6389 10.6308 13.4607 10.5012 13.3134C10.3715 13.1661 10.2109 13.0925 10.0193 13.0925C9.82761 13.0925 9.66432 13.1632 9.5294 13.3047C9.39449 13.4463 9.32703 13.6216 9.32703 13.8308C9.32703 14.04 9.39185 14.2183 9.52149 14.3656C9.65113 14.5129 9.81178 14.5865 10.0034 14.5865ZM10.0034 10.7346C10.1951 10.7346 10.3584 10.6639 10.4933 10.5224C10.6282 10.3809 10.6957 10.2055 10.6957 9.99626C10.6957 9.78706 10.6308 9.60882 10.5012 9.46155C10.3715 9.31425 10.2109 9.2406 10.0193 9.2406C9.82761 9.2406 9.66432 9.31137 9.5294 9.45291C9.39449 9.59442 9.32703 9.76978 9.32703 9.97898C9.32703 10.1882 9.39185 10.3665 9.52149 10.5137C9.65113 10.661 9.81178 10.7346 10.0034 10.7346ZM10.0034 6.88281C10.1951 6.88281 10.3584 6.81205 10.4933 6.67051C10.6282 6.52899 10.6957 6.35363 10.6957 6.14443C10.6957 5.93523 10.6308 5.75698 10.5012 5.60969C10.3715 5.46241 10.2109 5.38877 10.0193 5.38877C9.82761 5.38877 9.66432 5.45953 9.5294 5.60105C9.39449 5.74256 9.32703 5.91793 9.32703 6.12715C9.32703 6.33635 9.39185 6.51459 9.52149 6.66187C9.65113 6.80917 9.81178 6.88281 10.0034 6.88281ZM18.3086 18H1.6914C1.22627 18 0.828082 17.8192 0.496849 17.4576C0.165616 17.0961 0 16.6614 0 16.1536V12.7378C0.577263 12.6043 1.05457 12.2812 1.43192 11.7687C1.80929 11.2562 1.99798 10.6668 1.99798 10.0007C1.99798 9.33449 1.80967 8.74338 1.43304 8.22736C1.05644 7.71135 0.578759 7.38657 0 7.25302V3.83719C0 3.32944 0.165616 2.8963 0.496849 2.53778C0.828082 2.17926 1.22627 2 1.6914 2H18.3086C18.7738 2 19.1719 2.18079 19.5032 2.54237C19.8344 2.90396 20 3.33863 20 3.84638V7.26221C19.4227 7.39576 18.9454 7.72101 18.5681 8.23796C18.1907 8.7549 18.0021 9.34599 18.0021 10.0112C18.0021 10.6781 18.1904 11.2674 18.567 11.7791C18.9436 12.2908 19.4213 12.6135 20 12.747V16.1628C20 16.6706 19.8344 17.1037 19.5032 17.4622C19.1719 17.8207 18.7738 18 18.3086 18Z" fill="#000"/>
</g>
</svg>
