<svg width="34" height="27" viewBox="0 0 34 27" fill="#000" xmlns="http://www.w3.org/2000/svg">
<g clip-path="url(#clip0_435_8101)">
<path d="M33.499 14.3525C32.899 14.5525 32.499 15.0525 32.199 15.6525C31.999 16.1525 32.199 16.8525 32.099 17.3525C32.499 16.9525 32.699 16.4525 32.799 15.9525C32.899 14.9525 33.199 14.7525 33.199 14.7525C33.199 14.7525 32.999 14.9525 32.899 15.9525C32.799 16.5525 32.599 17.1525 32.099 17.5525C32.099 17.5525 32.099 17.6525 31.999 17.6525C32.599 17.4525 33.099 16.9525 33.199 16.3525C33.599 15.3525 33.099 15.0525 33.499 14.3525ZM32.799 11.6525C32.299 11.9525 31.999 12.5525 31.899 13.0525C31.799 13.5525 32.199 14.1525 32.099 14.6525C32.399 14.2525 32.499 13.7525 32.499 13.2525C32.399 12.8525 32.499 12.4525 32.699 12.0525C32.699 12.0525 32.499 12.2525 32.599 13.1525C32.699 13.7525 32.499 14.2525 32.099 14.7525V14.8525C32.599 14.5525 32.899 14.0525 32.999 13.4525C33.099 12.4525 32.599 12.3525 32.799 11.6525ZM31.699 12.5525C31.699 12.0525 32.099 11.5525 32.099 11.0525C32.099 10.4525 31.799 9.85254 31.399 9.45254C31.499 10.1525 30.999 10.2525 30.999 11.2525C30.999 11.8525 31.199 12.4525 31.699 12.8525V12.7525C31.399 12.2525 31.299 11.6525 31.499 11.1525C31.699 10.2525 31.599 10.0525 31.599 10.0525C31.699 10.4525 31.699 10.8525 31.599 11.2525C31.399 11.5525 31.499 12.0525 31.699 12.5525ZM30.799 11.0525C30.299 10.6525 29.899 10.1525 29.799 9.65254C29.599 8.75254 29.399 8.65254 29.399 8.65254C29.399 8.65254 29.699 8.85254 29.899 9.75254C29.999 10.2525 30.299 10.6525 30.699 10.9525C30.499 10.5525 30.599 9.85254 30.399 9.35254C30.099 8.85254 29.599 8.45254 29.099 8.35254C29.499 8.95254 29.099 9.25254 29.599 10.1525C29.699 10.5525 30.199 10.9525 30.799 11.0525ZM29.299 18.9525C28.699 19.4525 28.399 20.0525 28.199 20.7525C28.099 21.3525 28.499 21.9525 28.499 22.4525C28.799 21.9525 28.899 21.3525 28.899 20.8525C28.799 20.3525 28.899 19.8525 29.099 19.4525C28.899 19.8525 28.899 20.2525 28.999 20.7525C29.099 21.4525 28.899 22.0525 28.499 22.6525V22.7525C29.099 22.3525 29.499 21.6525 29.499 20.9525C29.599 19.8525 28.999 19.7525 29.299 18.9525ZM27.499 22.8525C27.999 21.8525 27.499 21.5525 27.899 20.8525C27.199 21.1525 26.699 21.5525 26.299 22.2525C26.099 22.7525 26.299 23.4525 26.099 23.9525C26.499 23.5525 26.799 23.0525 26.999 22.5525C26.999 22.0525 27.299 21.6525 27.599 21.2525C27.599 21.2525 27.299 21.4525 27.099 22.4525C26.999 23.1525 26.599 23.6525 26.099 24.0525C26.099 24.0525 26.099 24.1525 25.999 24.1525C26.699 23.9525 27.299 23.4525 27.499 22.8525ZM25.699 19.1525C26.699 17.6525 27.299 15.8525 27.299 13.9525V1.85254H27.199C25.599 1.35254 23.899 1.05254 22.199 0.852539C20.499 0.452539 18.699 0.352539 16.899 0.352539C15.099 0.352539 13.299 0.452539 11.499 0.752539C9.79902 0.952539 8.19902 1.35254 6.49902 1.75254H6.29902V13.9525C6.29902 15.7525 6.89902 17.5525 7.89902 19.1525C8.89902 20.6525 10.099 21.9525 11.499 23.1525C12.599 24.0525 13.799 24.9525 15.099 25.6525C16.099 26.2525 16.699 26.5525 16.699 26.5525H16.799H16.899C16.899 26.5525 17.599 26.2525 18.499 25.6525C19.799 24.8525 20.999 24.0525 22.099 23.1525C23.499 21.9525 24.699 20.6525 25.699 19.1525ZM25.799 14.0525C25.799 15.5525 25.299 17.0525 24.399 18.3525C23.499 19.7525 22.399 20.9525 21.099 21.9525C19.999 22.8525 18.899 23.6525 17.699 24.3525C17.299 24.5525 16.999 24.7525 16.799 24.8525C16.599 24.7525 16.299 24.5525 15.899 24.3525C14.699 23.6525 13.599 22.8525 12.499 21.9525C11.199 20.9525 10.099 19.7525 9.19902 18.3525C8.29902 17.0525 7.79902 15.5525 7.79902 14.0525V3.05254C8.99902 2.75254 10.299 2.45254 11.499 2.35254C13.199 2.15254 14.999 1.95254 16.699 1.95254C18.399 1.95254 20.199 2.05254 21.899 2.35254C23.199 2.55254 24.399 2.75254 25.599 3.05254L25.799 14.0525ZM5.69902 20.8525C6.19902 21.5525 5.59902 21.8525 6.09902 22.8525C6.39902 23.5525 6.89902 24.0525 7.59902 24.2525L7.49902 24.1525C6.99902 23.7525 6.59902 23.1525 6.49902 22.5525C6.29902 21.5525 5.99902 21.3525 5.99902 21.3525C6.29902 21.6525 6.49902 22.1525 6.59902 22.6525C6.69902 23.2525 6.99902 23.6525 7.49902 24.0525C7.29902 23.5525 7.49902 22.8525 7.29902 22.3525C6.99902 21.6525 6.39902 21.1525 5.69902 20.8525ZM5.19902 22.4525C5.19902 21.9525 5.49902 21.2525 5.49902 20.7525C5.39902 20.0525 4.99902 19.4525 4.39902 18.9525C4.59902 19.7525 4.09902 19.8525 4.19902 20.9525C4.29902 21.6525 4.59902 22.3525 5.19902 22.7525V22.6525C4.79902 22.1525 4.59902 21.4525 4.69902 20.7525C4.79902 20.3525 4.79902 19.8525 4.59902 19.4525C4.79902 19.8525 4.89902 20.3525 4.79902 20.8525C4.79902 21.4525 4.89902 21.9525 5.19902 22.4525ZM4.19902 10.0525C4.59902 9.15254 4.19902 8.85254 4.59902 8.35254C3.99902 8.45254 3.59902 8.85254 3.29902 9.35254C3.09902 9.75254 3.19902 10.4525 2.99902 10.8525C3.39902 10.5525 3.69902 10.1525 3.79902 9.65254C3.99902 8.85254 4.29902 8.65254 4.29902 8.65254C4.29902 8.65254 4.09902 8.85254 3.89902 9.65254C3.79902 10.1525 3.39902 10.6525 2.99902 10.9525C2.99902 10.9525 2.99902 11.0525 2.89902 11.0525C3.49902 10.9525 3.99902 10.5525 4.19902 10.0525ZM1.99902 12.7525C2.49902 12.3525 2.69902 11.7525 2.69902 11.1525C2.69902 10.1525 2.19902 10.0525 2.29902 9.35254C1.89902 9.75254 1.59902 10.3525 1.59902 10.9525C1.59902 11.4525 1.99902 12.0525 1.99902 12.4525C2.19902 12.0525 2.29902 11.5525 2.19902 11.0525C2.09902 10.6525 2.09902 10.2525 2.19902 9.85254C2.19902 9.85254 2.09902 10.1525 2.29902 10.9525C2.39902 11.5525 2.29902 12.0525 2.09902 12.5525C1.99902 12.7525 1.99902 12.7525 1.99902 12.7525ZM0.899023 11.6525C1.09902 12.3525 0.599023 12.4525 0.799023 13.4525C0.799023 14.0525 1.19902 14.5525 1.69902 14.8525V14.7525C1.39902 14.2525 1.19902 13.7525 1.29902 13.1525C1.19902 12.2525 0.999023 12.0525 0.999023 12.0525C1.19902 12.4525 1.29902 12.8525 1.19902 13.2525C1.19902 13.7525 1.29902 14.2525 1.59902 14.6525C1.59902 14.1525 1.89902 13.5525 1.79902 13.0525C1.69902 12.4525 1.39902 11.9525 0.899023 11.6525ZM0.199023 14.4525C0.599023 15.1525 0.0990234 15.4525 0.399023 16.3525C0.499023 16.9525 0.999023 17.4525 1.59902 17.6525C1.59902 17.6525 1.59902 17.5525 1.49902 17.5525C0.999023 17.1525 0.799023 16.5525 0.699023 15.9525C0.599023 14.9525 0.399023 14.7525 0.399023 14.7525C0.399023 14.7525 0.699023 15.0525 0.799023 15.9525C0.899023 16.4525 1.09902 16.9525 1.49902 17.3525C1.39902 16.8525 1.59902 16.1525 1.39902 15.6525C1.19902 15.1525 0.799023 14.6525 0.199023 14.4525ZM1.99902 18.5525C1.49902 18.0525 0.799023 17.7525 -0.000976562 17.7525C0.699023 18.3525 0.199023 18.7525 0.999023 19.6525C1.39902 20.2525 2.19902 20.5525 2.89902 20.5525L2.79902 20.4525C2.09902 20.2525 1.59902 19.7525 1.29902 19.1525C1.09902 18.7525 0.899023 18.4525 0.599023 18.1525C0.699023 18.1525 1.09902 18.3525 1.49902 19.1525C1.79902 19.6525 2.19902 20.0525 2.79902 20.2525C2.39902 19.8525 2.29902 19.0525 1.99902 18.5525ZM1.69902 18.0525C1.99902 18.0525 2.59902 17.8525 3.09902 16.8525C3.59902 15.8525 3.09902 15.4525 3.49902 14.7525C2.89902 14.9525 2.39902 15.3525 2.09902 15.9525C1.89902 16.4525 1.99902 17.2525 1.79902 17.8525C2.19902 17.4525 2.49902 17.0525 2.59902 16.4525C2.79902 15.5525 2.99902 15.3525 3.09902 15.2525C2.99902 15.5525 2.79902 15.9525 2.79902 16.3525C2.69902 16.9525 2.29902 17.5525 1.79902 17.9525C1.79902 17.9525 1.79902 17.9525 1.69902 18.0525ZM3.29902 17.4525C3.29902 17.4525 3.19902 17.7525 3.39902 18.7525C3.49902 19.3525 3.39902 20.0525 3.09902 20.5525V20.6525C3.59902 20.2525 3.89902 19.6525 3.89902 18.9525C3.89902 17.8525 3.39902 17.7525 3.49902 16.8525C2.99902 17.2525 2.69902 17.9525 2.69902 18.5525C2.69902 19.1525 3.09902 19.7525 3.19902 20.3525C3.39902 19.8525 3.49902 19.2525 3.39902 18.7525C3.19902 18.4525 3.19902 17.9525 3.29902 17.4525ZM2.99902 14.5525C3.59902 13.8525 3.29902 13.4525 3.89902 12.9525C3.29902 12.9525 2.79902 13.1525 2.39902 13.5525C2.09902 13.9525 1.99902 14.6525 1.69902 14.9525C2.09902 14.7525 2.49902 14.4525 2.69902 14.0525C3.09902 13.2525 3.49902 13.1525 3.49902 13.1525C3.49902 13.1525 3.29902 13.3525 2.89902 14.0525C2.69902 14.5525 2.19902 14.9525 1.69902 15.0525L1.59902 15.1525C2.09902 15.2525 2.69902 15.0525 2.99902 14.5525ZM4.19902 11.1525C4.19902 11.1525 3.89902 11.2525 3.49902 12.0525C3.29902 12.5525 2.79902 12.9525 2.29902 13.0525C2.29902 13.0525 2.19902 13.0525 2.19902 13.1525C2.79902 13.2525 3.29902 12.9525 3.69902 12.5525C4.29902 11.7525 3.99902 11.3525 4.59902 10.8525C3.99902 10.8525 3.49902 11.0525 3.09902 11.4525C2.79902 11.8525 2.69902 12.5525 2.39902 12.8525C2.79902 12.6525 3.19902 12.3525 3.39902 11.9525C3.79902 11.2525 4.19902 11.1525 4.19902 11.1525ZM0.999023 21.0525C1.79902 21.3525 1.59902 21.9525 2.59902 22.3525C3.19902 22.7525 3.99902 22.7525 4.69902 22.4525H4.59902C3.89902 22.5525 3.29902 22.3525 2.79902 21.8525C1.99902 21.1525 1.69902 21.1525 1.69902 21.1525C1.69902 21.1525 2.19902 21.0525 2.99902 21.7525C3.39902 22.1525 3.99902 22.3525 4.59902 22.3525C4.09902 22.0525 3.79902 21.3525 3.29902 21.0525C2.49902 20.7525 1.69902 20.7525 0.999023 21.0525ZM5.29902 23.1525C4.49902 23.0525 3.69902 23.1525 3.09902 23.6525C3.99902 23.6525 3.79902 24.3525 4.99902 24.6525C5.79902 24.9525 6.59902 24.7525 7.19902 24.2525H7.09902C6.39902 24.4525 5.59902 24.3525 4.99902 24.0525C4.09902 23.4525 3.69902 23.5525 3.69902 23.5525C4.19902 23.4525 4.69902 23.6525 5.19902 23.9525C5.69902 24.3525 6.29902 24.3525 6.89902 24.2525C6.39902 24.0525 5.89902 23.3525 5.29902 23.1525ZM8.19902 22.7525C8.59902 22.9525 8.89902 23.2525 9.09902 23.6525C9.39902 24.0525 9.79902 24.4525 10.299 24.5525C9.99902 24.1525 9.99902 23.5525 9.69902 23.2525C9.19902 22.8525 8.59902 22.5525 7.89902 22.5525C8.49902 23.0525 8.09902 23.3525 8.79902 24.0525C9.19902 24.5525 9.89902 24.8525 10.499 24.8525C10.499 24.8525 10.399 24.8525 10.399 24.7525C9.79902 24.5525 9.29902 24.2525 8.99902 23.6525C8.49902 22.8525 8.19902 22.7525 8.19902 22.7525ZM8.19902 24.8525C7.39902 24.9525 6.69902 25.3525 6.19902 25.9525C7.09902 25.7525 7.09902 26.4525 8.19902 26.4525C8.29902 26.4525 8.49902 26.4525 8.59902 26.4525C8.69902 26.4525 8.69902 26.4525 8.79902 26.3525C9.29902 26.2525 9.79902 25.9525 10.199 25.4525C10.099 25.4525 9.99902 25.5525 9.99902 25.5525C9.49902 25.7525 8.99902 25.8525 8.49902 25.8525C8.39902 25.8525 8.19902 25.8525 8.09902 25.7525C7.09902 25.4525 6.79902 25.6525 6.79902 25.6525C7.29902 25.4525 7.79902 25.4525 8.29902 25.6525C8.49902 25.6525 8.69902 25.7525 8.79902 25.7525C9.29902 25.7525 9.79902 25.6525 10.199 25.4525C10.499 25.3525 10.899 25.4525 11.099 25.5525C11.199 25.6525 11.299 25.6525 11.399 25.7525C11.699 26.0525 11.999 26.3525 12.299 26.6525L12.599 26.3525C12.599 26.3525 11.799 25.7525 11.299 25.4525C11.299 25.4525 11.199 25.3525 11.099 25.3525C10.699 25.1525 10.199 25.1525 9.79902 25.2525C9.69902 25.2525 9.59902 25.3525 9.59902 25.3525C9.09902 25.1525 8.69902 24.9525 8.19902 24.8525ZM25.499 22.7525C25.499 22.7525 25.199 22.8525 24.799 23.5525C24.499 24.0525 23.999 24.4525 23.399 24.6525L23.299 24.7525C23.999 24.7525 24.599 24.4525 24.999 23.9525C25.699 23.2525 25.299 22.9525 25.899 22.4525C25.199 22.4525 24.599 22.7525 24.099 23.1525C23.799 23.5525 23.799 24.1525 23.499 24.4525C23.999 24.2525 24.399 23.9525 24.699 23.5525C24.799 23.2525 25.099 22.9525 25.499 22.7525ZM22.399 25.3525C21.899 25.6525 21.099 26.2525 21.099 26.2525L21.399 26.5525C21.699 26.2525 21.999 25.9525 22.299 25.6525C22.399 25.5525 22.499 25.5525 22.599 25.4525C22.899 25.3525 23.199 25.2525 23.499 25.3525C23.899 25.5525 24.399 25.6525 24.899 25.6525C25.099 25.6525 25.299 25.6525 25.399 25.5525C25.899 25.3525 26.399 25.3525 26.899 25.5525C26.899 25.5525 26.599 25.3525 25.599 25.6525C25.499 25.6525 25.399 25.7525 25.199 25.7525C24.699 25.8525 24.199 25.7525 23.699 25.4525C23.599 25.4525 23.499 25.3525 23.499 25.3525C23.799 25.7525 24.299 26.0525 24.899 26.2525C24.999 26.2525 24.999 26.2525 25.099 26.3525C25.199 26.3525 25.399 26.3525 25.499 26.3525C26.599 26.3525 26.699 25.6525 27.499 25.8525C26.999 25.2525 26.299 24.8525 25.499 24.7525C24.999 24.8525 24.499 25.0525 24.099 25.2525C23.999 25.2525 23.899 25.1525 23.899 25.1525C23.499 25.0525 22.999 25.0525 22.599 25.2525C22.499 25.3525 22.399 25.4525 22.399 25.3525ZM28.699 24.6525C29.899 24.3525 29.699 23.6525 30.599 23.5525C29.899 23.1525 29.099 22.9525 28.399 23.0525C27.799 23.2525 27.399 23.9525 26.799 24.1525C27.399 24.2525 27.999 24.1525 28.599 23.8525C28.999 23.5525 29.499 23.3525 30.099 23.4525C30.099 23.4525 29.699 23.3525 28.799 23.9525C28.199 24.3525 27.399 24.4525 26.699 24.1525H26.599C27.099 24.8525 27.899 24.9525 28.699 24.6525ZM31.099 22.3525C32.099 21.8525 31.799 21.2525 32.699 20.9525C31.999 20.6525 31.299 20.6525 30.599 20.9525C30.099 21.2525 29.799 21.9525 29.299 22.2525C29.899 22.2525 30.399 22.0525 30.899 21.6525C31.699 20.9525 32.199 21.0525 32.199 21.0525C32.199 21.0525 31.799 21.0525 31.099 21.7525C30.599 22.1525 29.899 22.4525 29.199 22.3525H29.099C29.699 22.7525 30.499 22.7525 31.099 22.3525ZM31.999 18.0525C31.999 18.0525 31.999 17.9525 31.899 17.9525C31.399 17.5525 30.999 17.0525 30.899 16.3525C30.799 15.9525 30.699 15.5525 30.499 15.2525C30.599 15.3525 30.799 15.5525 30.999 16.4525C31.099 16.9525 31.399 17.4525 31.799 17.8525C31.599 17.3525 31.799 16.5525 31.499 15.9525C31.199 15.3525 30.699 14.9525 30.099 14.7525C30.499 15.4525 30.099 15.8525 30.499 16.8525C31.099 17.8525 31.699 17.9525 31.999 18.0525ZM30.599 20.5525C30.299 19.9525 30.199 19.3525 30.299 18.7525C30.499 17.7525 30.399 17.4525 30.399 17.4525C30.599 17.8525 30.599 18.3525 30.399 18.8525C30.299 19.3525 30.399 19.9525 30.599 20.4525C30.599 19.9525 31.099 19.2525 31.099 18.6525C31.099 17.9525 30.799 17.3525 30.299 16.9525C30.399 17.7525 29.899 17.8525 29.899 19.0525C29.799 19.7525 30.099 20.3525 30.699 20.7525C30.599 20.6525 30.599 20.6525 30.599 20.5525ZM29.499 11.1525C29.499 11.1525 29.899 11.2525 30.299 12.0525C30.499 12.4525 30.899 12.7525 31.299 12.9525C30.999 12.5525 30.999 11.8525 30.599 11.5525C30.199 11.1525 29.599 10.9525 29.099 10.9525C29.599 11.3525 29.299 11.8525 29.999 12.5525C30.299 13.0525 30.899 13.2525 31.499 13.1525C31.499 13.1525 31.399 13.1525 31.399 13.0525C30.899 12.9525 30.399 12.5525 30.199 12.0525C29.799 11.1525 29.499 11.1525 29.499 11.1525ZM30.199 13.2525C30.199 13.2525 30.599 13.3525 30.999 14.1525C31.199 14.5525 31.599 14.8525 31.999 15.0525C31.699 14.6525 31.699 13.9525 31.299 13.6525C30.899 13.2525 30.299 13.0525 29.799 13.0525C30.299 13.4525 29.999 13.9525 30.699 14.6525C30.999 15.1525 31.599 15.3525 32.199 15.2525C32.199 15.2525 32.099 15.2525 32.099 15.1525C31.599 14.9525 31.099 14.6525 30.899 14.1525C30.399 13.3525 30.199 13.2525 30.199 13.2525ZM30.799 20.4525C31.499 20.4525 32.199 20.1525 32.699 19.5525C33.499 18.6525 32.999 18.2525 33.699 17.6525C32.999 17.6525 32.299 17.9525 31.699 18.4525C31.299 18.9525 31.299 19.7525 30.999 20.1525C31.499 19.9525 31.999 19.5525 32.299 19.0525C32.699 18.2525 33.099 18.0525 33.199 18.0525C32.899 18.3525 32.599 18.6525 32.499 19.0525C32.199 19.6525 31.599 20.1525 30.999 20.3525C30.899 20.4525 30.899 20.4525 30.799 20.4525Z" fill="#000"/>
</g>
<defs>
<clipPath id="clip0_435_8101">
<rect width="33.7" height="26.3" fill="#000" transform="translate(0 0.349609)"/>
</clipPath>
</defs>
</svg>
