<svg xmlns="http://www.w3.org/2000/svg" width="32" height="33" viewBox="0 0 32 33" fill="none">
  <path d="M10.4001 3.14355H21.6001C25.8667 3.14355 29.3334 6.61022 29.3334 10.8769V22.0769C29.3334 24.1279 28.5187 26.0949 27.0684 27.5452C25.6181 28.9955 23.6511 29.8102 21.6001 29.8102H10.4001C6.13341 29.8102 2.66675 26.3436 2.66675 22.0769V10.8769C2.66675 8.82588 3.48151 6.85888 4.93179 5.4086C6.38207 3.95831 8.34907 3.14355 10.4001 3.14355ZM10.1334 5.81022C8.86037 5.81022 7.63948 6.31593 6.7393 7.21611C5.83913 8.11628 5.33341 9.33718 5.33341 10.6102V22.3436C5.33341 24.9969 7.48008 27.1436 10.1334 27.1436H21.8667C23.1398 27.1436 24.3607 26.6378 25.2609 25.7377C26.161 24.8375 26.6667 23.6166 26.6667 22.3436V10.6102C26.6667 7.95689 24.5201 5.81022 21.8667 5.81022H10.1334ZM23.0001 7.81022C23.4421 7.81022 23.866 7.98582 24.1786 8.29838C24.4912 8.61094 24.6667 9.03486 24.6667 9.47689C24.6667 9.91892 24.4912 10.3428 24.1786 10.6554C23.866 10.968 23.4421 11.1436 23.0001 11.1436C22.5581 11.1436 22.1341 10.968 21.8216 10.6554C21.509 10.3428 21.3334 9.91892 21.3334 9.47689C21.3334 9.03486 21.509 8.61094 21.8216 8.29838C22.1341 7.98582 22.5581 7.81022 23.0001 7.81022ZM16.0001 9.81022C17.7682 9.81022 19.4639 10.5126 20.7141 11.7628C21.9644 13.0131 22.6667 14.7088 22.6667 16.4769C22.6667 18.245 21.9644 19.9407 20.7141 21.1909C19.4639 22.4412 17.7682 23.1436 16.0001 23.1436C14.232 23.1436 12.5363 22.4412 11.286 21.1909C10.0358 19.9407 9.33341 18.245 9.33341 16.4769C9.33341 14.7088 10.0358 13.0131 11.286 11.7628C12.5363 10.5126 14.232 9.81022 16.0001 9.81022ZM16.0001 12.4769C14.9392 12.4769 13.9218 12.8983 13.1717 13.6485C12.4215 14.3986 12.0001 15.416 12.0001 16.4769C12.0001 17.5378 12.4215 18.5552 13.1717 19.3053C13.9218 20.0555 14.9392 20.4769 16.0001 20.4769C17.0609 20.4769 18.0784 20.0555 18.8285 19.3053C19.5787 18.5552 20.0001 17.5378 20.0001 16.4769C20.0001 15.416 19.5787 14.3986 18.8285 13.6485C18.0784 12.8983 17.0609 12.4769 16.0001 12.4769Z" fill="#000"/>
</svg>