<svg xmlns="http://www.w3.org/2000/svg" width="20" height="21" viewBox="0 0 20 21" fill="none">
  <path d="M14.9999 7.16683H14.1666V5.50016C14.1666 3.20016 12.2999 1.3335 9.99992 1.3335C7.69992 1.3335 5.83325 3.20016 5.83325 5.50016V7.16683H4.99992C4.08325 7.16683 3.33325 7.91683 3.33325 8.8335V17.1668C3.33325 18.0835 4.08325 18.8335 4.99992 18.8335H14.9999C15.9166 18.8335 16.6666 18.0835 16.6666 17.1668V8.8335C16.6666 7.91683 15.9166 7.16683 14.9999 7.16683ZM9.99992 14.6668C9.08325 14.6668 8.33325 13.9168 8.33325 13.0002C8.33325 12.0835 9.08325 11.3335 9.99992 11.3335C10.9166 11.3335 11.6666 12.0835 11.6666 13.0002C11.6666 13.9168 10.9166 14.6668 9.99992 14.6668ZM12.5833 7.16683H7.41658V5.50016C7.41658 4.07516 8.57492 2.91683 9.99992 2.91683C11.4249 2.91683 12.5833 4.07516 12.5833 5.50016V7.16683Z" fill="#000"/>
</svg>