<svg width="100" height="84" viewBox="0 0 100 84" fill="none" xmlns="http://www.w3.org/2000/svg">
<g id="TSG-Shield-97a3601d54216f21b56def0a15471c6b 1" clip-path="url(#clip0_1545_10138)">
<g id="Group 586">
<path id="Path 1205" d="M35.9858 26.764C36.0828 26.592 36.196 26.4335 36.2995 26.269L18.5396 12.3643V26.355L34.679 31.8376C34.6936 30.0755 35.1407 28.3399 35.9858 26.764Z" fill="#ABABAB"/>
<path id="Path 1206" d="M44.4865 20.4879C44.776 20.408 45.0703 20.3446 45.3631 20.2782V12.7041H38.3244V5.98408H44.2228L43.5322 2.33057C41.8243 2.45582 40.0954 2.63238 38.2856 2.87384C35.4853 3.28779 32.7128 3.85212 29.9822 4.56402L40.7909 22.0182C41.946 21.36 43.1884 20.8455 44.4865 20.4879Z" fill="#ABABAB"/>
<path id="Path 1207" d="M49.3143 34.3957L49.607 34.4833L48.9941 31.2402H46.4872L48.1951 33.9989C48.5461 34.1377 48.9148 34.272 49.3143 34.3957Z" fill="#ABABAB"/>
<path id="Path 1208" d="M52.3792 35.2847C52.722 35.3798 53.0714 35.4748 53.4337 35.5714C53.6277 35.6227 53.817 35.6861 54.0094 35.7435L81.4217 26.4354V12.5518L52.3792 35.2847Z" fill="#ABABAB"/>
<path id="Path 1209" d="M54.294 30.2971C53.9555 30.0641 53.5871 29.8714 53.1974 29.7236V31.2448H51.2L50.5337 34.7655C50.8086 34.847 51.0884 34.9285 51.3763 35.01L54.294 30.2971Z" fill="#ABABAB"/>
<path id="Path 1210" d="M59.5746 21.757L69.987 4.92915C66.8699 4.12732 63.7068 3.49047 60.5127 3.02166C59.1557 2.83001 57.8683 2.67608 56.6214 2.54932L55.9744 5.98401H60.2377V12.704H54.7016L53.3365 19.9325C54.473 20.0789 55.5956 20.3074 56.6941 20.6162C57.6937 20.9033 58.6589 21.2856 59.5746 21.757Z" fill="#ABABAB"/>
<path id="Path 1211" d="M36.1637 37.5692C36.0472 37.4093 35.9389 37.2433 35.8402 37.0728H18.5396V47.7873L39.5892 40.6387C38.2301 39.8501 37.0632 38.8044 36.1637 37.5692Z" fill="#ABABAB"/>
<path id="Path 1212" d="M57.8927 37.373C59.3442 38.1917 60.5748 39.3105 61.4896 40.6432C61.5737 40.7655 61.6514 40.8952 61.729 41.0235L81.4233 47.7133V37.0742H57.3169C57.5094 37.1723 57.7051 37.2674 57.8927 37.373Z" fill="#ABABAB"/>
<path id="Path 1213" d="M61.6626 51.7637C61.4238 52.204 61.1564 52.6304 60.8621 53.0404C61.0238 53.1611 61.1855 53.2682 61.3279 53.3965L62.1721 54.1269L61.3958 54.9177L61.234 55.0822L70.9526 70.7782C74.8682 68.1635 78.1275 64.7856 80.5046 60.8786L62.908 47.1006C62.8336 48.7173 62.41 50.3034 61.6626 51.7637Z" fill="#ABABAB"/>
<path id="Path 1214" d="M48.7903 43.9937L47.7584 49.4505C48.3509 49.4469 48.9411 49.3816 49.5181 49.2559C50.0519 49.1459 50.5653 48.9628 51.0416 48.7126C51.4161 48.5138 51.7378 48.2389 51.9829 47.9082C52.0285 47.8331 52.067 47.7543 52.0977 47.6728L51.6869 45.4952C51.6155 45.4229 51.5388 45.3553 51.4573 45.293C50.6386 44.7443 49.7407 44.3069 48.7903 43.9937Z" fill="#ABABAB"/>
<path id="Path 1215" d="M44.9377 64.3631C45.0088 64.7487 45.117 65.1275 45.2612 65.4949C45.5376 66.1982 45.9646 66.8416 46.5163 67.3858C47.062 67.9227 47.7234 68.3455 48.4571 68.6263C49.2821 68.9365 50.1651 69.0903 51.0545 69.079C51.9397 69.0961 52.8227 68.9903 53.6746 68.7651C54.121 68.6338 54.5124 68.5056 54.8439 68.3773V66.5241H50.5806V59.8539H54.4089L54.0223 57.8076C53.7328 57.9012 53.4482 57.9993 53.1474 58.0777C51.236 58.5739 49.2603 58.8212 47.2764 58.8127C46.9691 58.8127 46.6732 58.79 46.3707 58.7795C46.1937 58.9659 46.0315 59.1641 45.8855 59.3725L44.9377 64.3631Z" fill="#ABABAB"/>
<path id="Path 1216" d="M56.4467 75.2285C54.675 75.5794 52.8688 75.7559 51.0577 75.7551C49.1668 75.7712 47.2881 75.4717 45.5102 74.8708C44.6893 74.5909 43.8996 74.2371 43.1521 73.8145L42.2998 78.3266C43.1279 78.719 43.9349 79.0902 44.6886 79.4298C47.3136 80.6114 49.3789 81.4384 50.1471 81.7417C50.9461 81.4278 53.1521 80.5344 56.1523 79.131C56.7038 78.8729 57.2844 78.5907 57.8877 78.298L57.2731 75.0459C56.9966 75.1032 56.7232 75.1741 56.4467 75.2285Z" fill="#ABABAB"/>
<path id="Path 1217" d="M43.2509 48.1377L46.298 43.1999C45.651 43.0053 44.9944 42.8121 44.3151 42.6189C43.9916 42.5299 43.6876 42.4288 43.3787 42.3262L19.6733 60.888C20.8508 63.5244 24.2811 67.1145 29.2577 70.7424L37.8878 56.8059C36.4125 56.0766 35.0461 55.1699 33.8234 54.1092L32.9501 53.3546L33.749 52.5337L39.641 46.4973L40.6114 45.4998L41.4815 46.5773C41.9759 47.1842 42.5736 47.7113 43.2509 48.1377Z" fill="#ABABAB"/>
<path id="Path 1226" d="M81.7241 71.7731C83.1522 68.9858 81.6093 68.3022 82.9598 66.3403C81.001 67.0517 79.3697 68.3785 78.3471 70.0919C77.7002 71.5286 78.2258 73.498 77.6856 74.8908C78.9688 73.8815 79.8689 72.5129 80.2523 70.9883C80.3808 69.6736 80.9968 68.4418 81.9942 67.5054C81.9942 67.5054 81.1985 68.109 80.6292 70.765C80.2328 72.5649 79.1248 74.1596 77.5255 75.2319C77.4617 75.344 77.3882 75.451 77.3055 75.5518C78.2991 75.2724 79.2123 74.7875 79.9773 74.1333C80.7423 73.479 81.3394 72.6723 81.7241 71.7731Z" fill="white"/>
<path id="Path 1227" d="M76.9481 70.8838C74.9913 71.0153 73.1316 71.73 71.6432 72.9226C70.6583 73.9412 70.647 75.6389 69.7752 76.65C71.1872 76.1498 72.3885 75.2379 73.2007 74.0499C73.7119 72.9848 74.6117 72.1238 75.74 71.6202C75.74 71.6202 74.8359 71.9311 73.6099 73.9533C72.692 75.3717 71.2388 76.4186 69.5358 76.8885C69.4485 76.9657 69.3537 77.0354 69.2528 77.0967C70.2164 77.0961 71.1694 76.9093 72.0518 76.548C72.9342 76.1867 73.7269 75.6588 74.3798 74.9976C76.4419 73.0584 75.1707 72.1786 76.9481 70.8838Z" fill="white"/>
<path id="Path 1228" d="M91.3925 39.1765C91.3196 39.0972 91.2547 39.0118 91.1984 38.9214C90.4972 38.5155 89.8897 37.9832 89.4115 37.3556C88.9333 36.728 88.594 36.0178 88.4134 35.2664C87.7665 32.8881 87.0969 32.4595 87.0969 32.4595C87.0969 32.4595 88.0915 33.0103 88.7272 35.4143C89.088 36.7006 89.9085 37.8334 91.0529 38.6257C90.5224 37.4184 90.8119 35.5079 90.1909 34.2765C89.7663 33.5951 89.1991 33.0003 88.5231 32.5277C87.847 32.0551 87.076 31.7142 86.2559 31.5254C87.4672 33.1356 86.2866 34.0124 87.6193 36.3711C87.9287 37.1067 88.4404 37.7534 89.1028 38.2458C89.7652 38.7383 90.5549 39.0593 91.3925 39.1765Z" fill="white"/>
<path id="Path 1229" d="M89.869 41.7602C90.5403 42.9026 91.6265 43.784 92.9322 44.2457C92.1138 43.224 91.8987 41.3 90.9833 40.2783C90.3937 39.7325 89.6882 39.3078 88.9122 39.0316C88.1362 38.7553 87.3068 38.6335 86.4774 38.6741C88.0608 39.9055 87.1486 41.066 89.0393 42.9856C89.5335 43.6117 90.201 44.1005 90.9703 44.3996C91.7396 44.6987 92.5816 44.7968 93.4061 44.6833C93.3149 44.6251 93.2294 44.5594 93.1506 44.4871C92.3724 44.2827 91.6483 43.9297 91.0241 43.4504C90.3999 42.9711 89.8892 42.376 89.5245 41.7029C88.2937 39.5781 87.5303 39.3442 87.5303 39.3442C87.5303 39.3442 88.6382 39.6128 89.869 41.7602Z" fill="white"/>
<path id="Path 1230" d="M94.032 43.9662C94.0054 43.86 93.9881 43.752 93.9803 43.6433C93.1343 42.2616 92.8779 40.6331 93.2622 39.0828C93.8218 36.6848 93.4239 35.9771 93.4239 35.9771C93.8553 37.0679 93.869 38.2643 93.4627 39.3635C93.1751 40.6978 93.3554 42.083 93.977 43.3143C94.0838 41.9999 95.2402 40.4606 95.2709 39.0783C95.1577 37.433 94.3886 35.8869 93.115 34.7441C93.4191 36.7512 91.9699 36.9429 92.0265 39.6608C91.96 40.4765 92.1078 41.2951 92.4573 42.0454C92.8068 42.7957 93.3474 43.4551 94.032 43.9662Z" fill="white"/>
<path id="Path 1231" d="M95.1674 50.3467C94.3886 50.1432 93.6638 49.7905 93.0393 49.3111C92.4147 48.8317 91.904 48.2362 91.5397 47.5624C90.3121 45.4407 89.5487 45.2083 89.5487 45.2083C89.5487 45.2083 90.6501 45.4709 91.8825 47.6228C92.5539 48.7653 93.6392 49.6475 94.9442 50.1113C94.1274 49.0881 93.9123 47.1656 93.0034 46.1424C92.4131 45.5969 91.7073 45.1725 90.9311 44.8963C90.1549 44.62 89.3255 44.4981 88.4958 44.5382C90.0825 45.7712 89.1654 46.9286 91.0609 48.8512C91.5539 49.4784 92.2215 49.9677 92.9912 50.2662C93.761 50.5647 94.6036 50.6609 95.4278 50.5444C95.3338 50.4871 95.2466 50.4209 95.1674 50.3467Z" fill="white"/>
<path id="Path 1232" d="M95.3388 49.093C96.1265 47.9525 96.4954 46.604 96.3901 45.2508C96.1365 44.1156 96.3138 42.9334 96.8915 41.9067C96.8915 41.9067 96.4063 42.548 96.6311 45.0033C96.8054 46.58 96.3268 48.1593 95.2936 49.4174C95.2726 49.5243 95.2418 49.6294 95.2014 49.7313C95.9486 49.3176 96.5741 48.7374 97.0218 48.0426C97.4695 47.3477 97.7254 46.5601 97.7665 45.7503C98.1967 43.0672 96.7864 42.6718 97.3621 40.7266C95.9398 41.6825 94.9635 43.1102 94.6337 44.7166C94.48 46.0869 95.4132 47.7755 95.3388 49.093Z" fill="white"/>
<path id="Path 1233" d="M94.8844 58.4522C94.8069 58.3582 94.7397 58.2571 94.6839 58.1504C93.9199 57.6412 93.2716 56.9959 92.7761 56.2518C92.2806 55.5077 91.9478 54.6794 91.7969 53.8148C91.1969 51.0079 90.4756 50.4948 90.4756 50.4948C90.4756 50.4948 91.5365 51.1512 92.1333 53.9883C92.4477 55.4773 93.2924 56.8234 94.5302 57.8078C94.003 56.3833 94.3944 54.1302 93.7652 52.6769C93.3533 51.8874 92.7688 51.187 92.0493 50.621C91.3298 50.0549 90.4913 49.6356 89.5876 49.3901C90.8427 51.3052 89.5197 52.3193 90.8815 55.1126C92.2433 57.9059 94.0434 58.3647 94.8844 58.4522Z" fill="white"/>
<path id="Path 1234" d="M95.6283 51.9979C95.1625 53.4089 95.7706 55.4024 95.4019 56.7681C96.4905 55.7394 97.1798 54.401 97.3604 52.9652C97.6532 50.3001 98.6268 49.5516 98.6268 49.5516C98.6268 49.5516 97.9799 50.119 97.6694 52.7584C97.5147 54.4427 96.6581 56.0032 95.2838 57.1046C95.2388 57.2116 95.1848 57.3151 95.1221 57.414C95.9994 57.1487 96.7892 56.678 97.4161 56.0468C98.0429 55.4157 98.486 54.6451 98.7028 53.8088C99.746 51.0788 98.3487 50.3378 99.3837 48.4243C97.6751 49.1057 96.3249 50.3905 95.6283 51.9979Z" fill="white"/>
<path id="Path 1235" d="M90.1375 60.7819C89.8217 62.2823 90.0309 63.8376 90.7343 65.2186C90.8442 63.7095 92.1139 61.8564 92.1414 60.2869C92.0338 58.478 91.1676 56.7812 89.7299 55.5635C90.0777 57.8181 88.4732 58.1697 88.5541 61.2558C88.635 64.3419 90.0663 65.5174 90.7909 65.9566C90.7604 65.8371 90.7409 65.7154 90.7327 65.5929C89.7729 64.0473 89.478 62.2193 89.9078 60.4786C90.5127 57.6988 90.0695 56.9352 90.0695 56.9352C90.5628 58.1725 90.5868 59.5301 90.1375 60.7819Z" fill="white"/>
<path id="Path 1236" d="M94.2067 59.9628C93.1037 61.2305 93.0196 63.4579 92.0443 64.721C93.6606 64.0946 94.9984 62.9709 95.8354 61.5368C97.2409 58.9412 98.669 58.5186 98.669 58.5186C98.669 58.5186 97.684 58.8688 96.2801 61.4403C95.8211 62.286 95.1866 63.0383 94.4133 63.6533C93.6401 64.2683 92.7436 64.7338 91.7759 65.0228C91.6768 65.1171 91.5685 65.2025 91.4524 65.2779C92.5269 65.3279 93.5984 65.1336 94.5746 64.7117C95.5508 64.2898 96.4025 63.6529 97.0565 62.8558C99.3596 60.4503 98.0269 59.2204 99.9968 57.6328C97.822 57.7048 95.7555 58.5364 94.2067 59.9628Z" fill="white"/>
<path id="Path 1237" d="M90.7132 66.7931C89.2237 67.5552 88.3374 69.5985 86.9723 70.4013C88.6794 70.4355 90.342 69.8919 91.6529 68.8711C93.9026 66.9832 95.3873 67.1311 95.3873 67.1311C95.3873 67.1311 94.3409 67.0843 92.1042 68.942C91.3615 69.5564 90.4894 70.0191 89.5438 70.3003C88.5982 70.5815 87.6 70.675 86.6133 70.5748C86.4873 70.6247 86.3569 70.664 86.2235 70.6926C87.1722 71.1406 88.2251 71.3622 89.2881 71.3374C90.3511 71.3127 91.3909 71.0424 92.3144 70.5507C95.3307 69.1819 94.5399 67.5325 96.9448 66.8066C94.947 66.0536 92.7148 66.0487 90.7132 66.7931Z" fill="white"/>
<path id="Path 1238" d="M84.2148 72.5815C82.4778 73.1067 81.1257 75.1198 79.5099 75.7159C81.3105 76.0886 83.1949 75.8325 84.8067 74.9961C87.5804 73.4161 89.1331 73.8658 89.1331 73.8658C89.1331 73.8658 88.0301 73.6077 85.2741 75.1636C84.3532 75.6763 83.3263 76.001 82.2612 76.1165C81.196 76.232 80.1166 76.1356 79.0943 75.8336C78.9507 75.8626 78.8045 75.8788 78.6576 75.8819C79.5673 76.546 80.6388 76.99 81.7768 77.1743C82.9148 77.3586 84.084 77.2775 85.1803 76.9383C88.6689 76.063 88.1498 74.1419 90.862 73.831C89.0862 72.9362 86.4613 71.9039 84.2148 72.5815Z" fill="white"/>
<path id="Path 1239" d="M85.7447 66.2675C85.467 64.9606 85.6693 63.6044 86.3189 62.4178C85.86 63.5408 85.7606 64.7639 86.0326 65.9385C86.203 67.7955 85.6506 69.6475 84.4767 71.1555C84.4506 71.2817 84.4139 71.4059 84.3668 71.5267C85.2205 70.9449 85.9311 70.1996 86.451 69.3407C86.9709 68.4819 87.2882 67.5293 87.3815 66.5467C87.8667 63.4531 86.2041 63.3007 86.8736 61.0068C85.2388 62.3058 84.111 64.0734 83.6665 66.0336C83.4918 67.6016 84.6045 69.2963 84.5237 70.7857C85.4213 69.4336 85.8478 67.8551 85.7447 66.2675Z" fill="white"/>
<path id="Path 1240" d="M71.5494 78.7418C71.3239 78.6443 71.0902 78.564 70.8507 78.5019C69.5822 78.0969 68.1971 78.1507 66.9691 78.6528C66.8898 78.6875 66.4693 78.8882 66.4693 78.8882C64.9345 79.7605 62.6168 81.4054 62.6168 81.4054L63.4465 82.2278C64.269 81.3338 65.1609 80.4975 66.1151 79.7258C66.3815 79.5312 66.6602 79.3518 66.9497 79.1885C67.8212 78.7821 68.8165 78.6691 69.7671 78.8686C69.7849 78.8686 69.8593 78.9169 69.8868 78.9305C71.1855 79.5498 72.6204 79.8799 74.0789 79.8948C74.6187 79.8896 75.1558 79.8232 75.6784 79.6971C76.3737 79.4427 77.1162 79.3198 77.8629 79.3356C78.6095 79.3514 79.3453 79.5056 80.0275 79.7891C80.0275 79.7891 79.0571 79.2549 76.0731 79.9763C75.7075 80.0657 75.3357 80.1313 74.9603 80.1725C73.4322 80.3452 71.8839 80.0821 70.5191 79.4179C70.2798 79.3047 70.0469 79.1885 69.8237 79.0678C70.8237 80.2818 72.2592 81.1187 73.867 81.425C74.0532 81.481 74.2428 81.5269 74.4347 81.5623C74.8267 81.6332 75.2275 81.6515 75.6251 81.6167C79.0215 81.6876 79.0619 79.7922 81.6545 80.2207C80.2232 78.9078 78.0365 77.2388 75.7512 77.2765C74.2794 77.5644 72.8628 78.0584 71.5494 78.7418Z" fill="white"/>
<path id="Path 1241" d="M18.2792 71.8256C18.6633 72.7241 19.2598 73.53 20.0243 74.1832C20.7889 74.8365 21.7016 75.3202 22.6945 75.5983C22.6123 75.4981 22.5393 75.3916 22.4762 75.2799C20.8779 74.209 19.7704 72.6159 19.3741 70.8175C18.8032 68.154 18.0058 67.5579 18.0058 67.5579C19.0041 68.4891 19.621 69.7172 19.7493 71.0288C20.1319 72.5546 21.0321 73.9243 22.316 74.9343C21.7758 73.543 22.316 71.5706 21.6562 70.1369C20.6335 68.4217 19.0009 67.0937 17.0403 66.3823C18.3924 68.3607 16.8494 69.0413 18.2792 71.8256Z" fill="white"/>
<path id="Path 1242" d="M25.6219 75.0507C26.2743 75.7123 27.0665 76.2405 27.9487 76.6021C28.8308 76.9636 29.7837 77.1506 30.7472 77.1514C30.6473 77.0894 30.5527 77.0202 30.4642 76.9446C28.7615 76.4726 27.3084 75.4256 26.3885 74.0079C25.1658 71.9872 24.2617 71.6779 24.2617 71.6779C25.3898 72.1806 26.2889 73.042 26.7977 74.1075C27.6122 75.2936 28.8136 76.2041 30.2248 76.7047C29.3563 75.7026 29.345 73.9989 28.3568 72.9802C26.8714 71.7849 25.0118 71.0693 23.0552 70.9399C24.8342 72.2363 23.5582 73.1145 25.6219 75.0507Z" fill="white"/>
<path id="Path 1243" d="M12.3872 36.4268C13.7199 34.0681 12.5392 33.1913 13.7522 31.5796C12.9313 31.7681 12.1595 32.109 11.4829 32.5819C10.8063 33.0549 10.2387 33.6501 9.81399 34.3322C9.19293 35.5636 9.4792 37.4771 8.95195 38.6829C10.0965 37.8884 10.9154 36.7526 11.2728 35.464C11.9084 33.06 12.9015 32.5107 12.9015 32.5107C12.9015 32.5107 12.2238 32.9408 11.5866 35.3176C11.4053 36.0687 11.0655 36.7786 10.587 37.4058C10.1086 38.0331 9.50106 38.5652 8.79991 38.9711C8.7454 39.0639 8.68033 39.1509 8.60583 39.2307C9.44472 39.1149 10.236 38.7947 10.8999 38.3024C11.5638 37.8101 12.0768 37.1632 12.3872 36.4268Z" fill="white"/>
<path id="Path 1244" d="M13.5242 38.7284C12.6947 38.689 11.8654 38.8115 11.0895 39.0883C10.3136 39.365 9.60816 39.7899 9.01832 40.3356C8.10129 41.3557 7.88619 43.2798 7.07752 44.303C8.37935 43.8398 9.46185 42.9592 10.131 41.819C11.3635 39.6701 12.4649 39.4045 12.4649 39.4045C12.4649 39.4045 11.7015 39.6369 10.4707 41.7617C10.1051 42.4325 9.59436 43.0254 8.9708 43.5028C8.34725 43.9802 7.62438 44.3318 6.84786 44.5354C6.76778 44.6065 6.68179 44.6716 6.5907 44.7301C7.41482 44.8457 8.25713 44.7491 9.02671 44.4507C9.79629 44.1523 10.4639 43.6634 10.9575 43.0369C12.8546 41.1218 11.9392 39.9613 13.5242 38.7284Z" fill="white"/>
<path id="Path 1245" d="M6.53249 39.4166C6.12698 38.3172 6.14126 37.1209 6.57292 36.0302C6.57292 36.0302 6.17991 36.7349 6.73466 39.1359C7.11913 40.6867 6.86087 42.3158 6.0117 43.6964C6.00663 43.8052 5.99039 43.9134 5.96318 44.0193C6.64663 43.5084 7.1862 42.8497 7.53511 42.1002C7.88402 41.3508 8.03173 40.5332 7.96545 39.7184C8.02367 37.0021 6.57454 36.8059 6.8786 34.8003C5.60287 35.943 4.83297 37.4907 4.72107 39.1374C4.75503 40.5182 5.90981 42.056 6.01494 43.3704C6.63901 42.1388 6.82052 40.7522 6.53249 39.4166Z" fill="white"/>
<path id="Path 1246" d="M7.00465 46.2C6.08924 47.2201 5.87251 49.1457 5.05414 50.1658C6.35988 49.705 7.44623 48.8241 8.11738 47.6819C9.34979 45.5329 10.4496 45.2673 10.4496 45.2673C10.4496 45.2673 9.68782 45.4997 8.45864 47.6261C8.09378 48.2992 7.58286 48.8942 6.95834 49.3733C6.33382 49.8524 5.60936 50.205 4.83095 50.4088C4.75334 50.4822 4.6683 50.5484 4.57703 50.6065C5.40155 50.7208 6.24386 50.6231 7.01331 50.3239C7.78276 50.0248 8.45021 49.5355 8.94384 48.9088C10.8361 46.9892 9.92233 45.8272 11.5073 44.5973C10.6786 44.5572 9.84999 44.6791 9.07464 44.955C8.29928 45.231 7.59423 45.655 7.00465 46.2Z" fill="white"/>
<path id="Path 1247" d="M2.23349 45.8089C2.27403 46.6188 2.52986 47.4066 2.97792 48.1013C3.42599 48.796 4.05222 49.3758 4.8002 49.7884C4.75958 49.6874 4.7282 49.5834 4.7064 49.4775C3.67397 48.2178 3.19559 46.638 3.36886 45.0604C3.59529 42.6051 3.11009 41.9638 3.11009 41.9638C3.68963 42.991 3.86749 44.1746 3.61308 45.3109C3.50647 46.6633 3.87556 48.0112 4.66435 49.15C4.59157 47.8356 5.52315 46.147 5.36789 44.7737C5.03684 43.1678 4.0601 41.7408 2.63782 40.7852C3.21198 42.7274 1.80489 43.1212 2.23349 45.8089Z" fill="white"/>
<path id="Path 1248" d="M8.20642 53.8599C8.05553 54.7249 7.7226 55.5535 7.22683 56.2979C6.73106 57.0423 6.08227 57.6877 5.31786 58.197C5.26202 58.3036 5.19483 58.4048 5.11731 58.4988C5.96479 58.4098 7.76974 57.945 9.12507 55.1517C10.4804 52.3583 9.15904 51.3427 10.4189 49.4292C9.51443 49.6751 8.67512 50.095 7.95505 50.6618C7.23499 51.2287 6.65013 51.93 6.23813 52.7205C5.6106 54.1768 6.00199 56.4269 5.47474 57.8514C6.70968 56.8691 7.55403 55.5274 7.87163 54.0425C8.46681 51.2024 9.52941 50.5429 9.52941 50.5429C9.52941 50.5429 8.80646 51.056 8.20642 53.8599Z" fill="white"/>
<path id="Path 1249" d="M1.30196 53.8644C1.51716 54.7019 1.95977 55.4736 2.58718 56.1053C3.2146 56.737 4.0057 57.2073 4.88437 57.4711C4.8207 57.3727 4.76658 57.2691 4.72263 57.1617C3.34745 56.0609 2.49073 54.5001 2.33706 52.8156C2.033 50.1777 1.37959 49.6072 1.37959 49.6072C1.37959 49.6072 2.35 50.3618 2.6492 53.0223C2.8317 54.4582 3.52005 55.7969 4.60618 56.8282C4.23581 55.458 4.84717 53.466 4.37976 52.0535C3.68176 50.4447 2.32822 49.1601 0.616211 48.4814C1.65131 50.398 0.253927 51.1359 1.30196 53.8644Z" fill="white"/>
<path id="Path 1250" d="M9.21238 66.0111C9.93695 65.5765 11.3699 64.3919 11.4508 61.3103C11.5316 58.2288 9.92563 57.8726 10.2734 55.6226C8.83379 56.8382 7.96564 58.5342 7.85706 60.343C7.88779 61.914 9.15092 63.7716 9.26899 65.2732C9.97333 63.8913 10.1815 62.3344 9.86255 60.8334C9.41177 59.5837 9.43404 58.2276 9.92563 56.9913C9.92563 56.9913 9.48571 57.7549 10.0874 60.5346C10.5156 62.2751 10.2202 64.1023 9.2609 65.6474C9.25578 65.7697 9.23955 65.8914 9.21238 66.0111Z" fill="white"/>
<path id="Path 1251" d="M8.5444 65.329C8.42794 65.2534 8.31961 65.1675 8.22093 65.0725C7.25466 64.7832 6.35947 64.3181 5.58714 63.7039C4.81482 63.0897 4.1807 62.3388 3.7215 61.4944C2.31765 58.929 1.33269 58.5758 1.33269 58.5758C1.33269 58.5758 2.7608 58.9969 4.16788 61.594C5.0046 63.0281 6.3417 64.1522 7.9573 64.7797C6.9869 63.5166 6.90118 61.2877 5.79654 60.0215C4.24856 58.59 2.17826 57.7567 0 57.6885C1.9683 59.27 0.638851 60.5014 2.9387 62.9114C3.59345 63.7078 4.44568 64.3439 5.42214 64.765C6.3986 65.1862 7.47006 65.3797 8.5444 65.329Z" fill="white"/>
<path id="Path 1252" d="M13.7749 70.7496C13.6422 70.7239 13.5126 70.6855 13.3884 70.6349C12.4014 70.7334 11.4033 70.6386 10.4578 70.3566C9.51237 70.0747 8.64035 69.6118 7.89749 68.9976C5.65909 67.1369 4.61591 67.1867 4.61591 67.1867C4.61591 67.1867 6.09739 67.0358 8.34872 68.9282C9.65903 69.9489 11.3211 70.4925 13.0277 70.4584C11.6627 69.654 10.7764 67.6168 9.2884 66.8517C7.28639 66.1061 5.05301 66.1115 3.05518 66.8668C5.46016 67.5972 4.67252 69.2405 7.68562 70.6123C8.60903 71.1039 9.64885 71.3738 10.7117 71.3978C11.7745 71.4218 12.8271 71.199 13.7749 70.7496Z" fill="white"/>
<path id="Path 1253" d="M20.9057 75.8914C19.8836 76.1945 18.8042 76.2916 17.7388 76.1764C16.6735 76.0611 15.6465 75.7361 14.7258 75.2229C11.9764 73.67 10.8669 73.9235 10.8669 73.9235C10.8669 73.9235 12.4195 73.4708 15.1933 75.0554C16.8044 75.892 18.6889 76.1471 20.4884 75.7722C18.8711 75.1791 17.5238 73.1675 15.7868 72.6378C13.5387 71.9557 10.9154 72.9909 9.13794 73.8828C11.8518 74.1967 11.3311 76.1147 14.8196 76.993C15.9162 77.3325 17.0857 77.4137 18.224 77.2294C19.3623 77.0451 20.4341 76.601 21.344 75.9367C21.1966 75.9352 21.0498 75.92 20.9057 75.8914Z" fill="white"/>
<path id="Path 1254" d="M12.6217 66.5951C12.7144 67.5778 13.0314 68.5306 13.5514 69.3896C14.0714 70.2485 14.7823 70.9937 15.6364 71.5751C15.5886 71.4544 15.5513 71.3302 15.5248 71.2039C14.3515 69.6951 13.7993 67.8428 13.969 65.9854C14.2425 64.8107 14.1424 63.5871 13.6811 62.4647C14.3315 63.6521 14.5337 65.0095 14.2552 66.3174C14.1541 67.9041 14.5812 69.4812 15.4779 70.8326C15.3987 69.3432 16.5114 67.6454 16.3367 66.079C15.8925 64.1188 14.764 62.3514 13.1279 61.0537C13.7975 63.3536 12.1301 63.5015 12.6217 66.5951Z" fill="white"/>
<path id="Path 1255" d="M33.5484 78.9606L33.0341 78.7131C31.8056 78.2133 30.4213 78.1594 29.1525 78.5622C28.913 78.6265 28.6789 78.7072 28.4522 78.8037C27.1409 78.1209 25.7256 77.6288 24.2552 77.3444C21.9732 77.3067 19.7849 78.9727 18.3519 80.2856C20.9478 79.857 20.9914 81.7509 24.3814 81.683C24.7795 81.7171 25.1807 81.6988 25.5733 81.6287C25.766 81.5939 25.9561 81.548 26.1426 81.4914C27.7509 81.1851 29.1866 80.3475 30.186 79.1327C29.9628 79.2519 29.7331 79.3711 29.4905 79.4813C28.1265 80.1479 26.5784 80.4141 25.0493 80.2449C24.6754 80.2006 24.3049 80.1345 23.9398 80.0472C20.9526 79.3258 19.9854 79.86 19.9854 79.86C20.6676 79.5764 21.4034 79.4222 22.15 79.4064C22.8967 79.3906 23.6392 79.5135 24.3345 79.768C24.857 79.8919 25.3933 79.9577 25.9324 79.9642C27.3908 79.9487 28.8256 79.6187 30.1245 78.9999L30.1957 78.9652L30.2426 78.9365C31.1941 78.7345 32.1913 78.8476 33.0632 79.2564C33.3545 79.4212 33.6353 79.6015 33.9043 79.7967C34.8576 80.5703 35.7495 81.4075 36.5729 82.3017L37.4025 81.4793C37.4025 81.4793 35.0817 79.8329 33.5484 78.9636V78.9606Z" fill="white"/>
<path id="Path 1256" d="M60.4868 41.25C60.2738 40.9435 60.0427 40.6482 59.7946 40.3656C59.0873 39.5567 58.2353 38.8679 57.2764 38.3299C56.3867 37.8314 55.4495 37.4105 54.4768 37.0728C54.0304 36.9219 53.576 36.771 53.1085 36.6472C52.7754 36.5567 52.4616 36.4692 52.1381 36.3801C51.8519 36.3016 51.5624 36.2292 51.2826 36.1447L50.7618 35.9938L50.3235 35.864L49.8383 35.7222C49.6022 35.6512 49.3531 35.5818 49.1299 35.5124L48.9358 35.455C48.3504 35.2762 47.7774 35.064 47.2198 34.8197C46.6977 34.5935 46.1977 34.3254 45.7254 34.0184C45.2828 33.7295 44.936 33.3306 44.7243 32.867C44.5399 32.4646 44.4468 32.0309 44.4509 31.5933C44.4312 30.9928 44.6176 30.4022 44.983 29.9076C45.0984 29.77 45.2243 29.6404 45.3599 29.5198V21.4341C45.182 21.4778 45.0008 21.5141 44.8229 21.5624C43.6117 21.8918 42.4527 22.3698 41.3764 22.9839C40.9813 23.2085 40.599 23.4523 40.2313 23.7143C39.0019 24.6074 37.9796 25.724 37.2263 26.9966C37.1681 27.0932 37.1001 27.1837 37.0435 27.2833C36.2188 28.8182 35.809 30.5181 35.8499 32.2346C35.7629 33.8889 36.2139 35.5291 37.1438 36.94C37.1778 36.9853 37.215 37.0245 37.2489 37.0713C38.0798 38.1852 39.1562 39.1206 40.406 39.8148C40.613 39.9295 40.8281 40.0351 41.04 40.1423C42.126 40.6916 43.2667 41.1409 44.4461 41.4839C44.5156 41.505 44.5819 41.5291 44.6531 41.5488C45.4316 41.7681 46.182 41.9879 46.9044 42.2082C47.5336 42.3999 48.1369 42.59 48.7239 42.7817L48.7514 42.7907H48.7757H48.7951H48.8145H48.8323L48.8598 42.7983H48.8776H48.897L48.918 42.8058L48.9859 42.83C49.8163 43.0996 50.6155 43.4464 51.3715 43.8652C51.6433 44.0167 51.9068 44.1809 52.1608 44.3572C52.5787 44.6442 52.9151 45.0222 53.1406 45.4583C53.3661 45.8944 53.4739 46.3754 53.4547 46.8593C53.4699 47.4399 53.2937 48.0109 52.95 48.4951C52.7801 48.7278 52.5814 48.941 52.3581 49.1304C52.1331 49.3222 51.887 49.4911 51.6238 49.6345C51.0955 49.9096 50.5297 50.1168 49.9418 50.2502C50.3025 50.229 50.6631 50.2079 51.0335 50.2079C51.5543 50.2079 52.067 50.226 52.5716 50.2562C53.9397 50.3345 55.2951 50.5479 56.6149 50.893C57.5644 51.1481 58.4749 51.5158 59.324 51.9871C59.5148 52.0913 59.6976 52.206 59.882 52.3206C61.1762 50.4993 61.8235 48.3442 61.7322 46.1605C61.7322 46.1439 61.7322 46.1273 61.7322 46.1107C61.8229 44.4128 61.3908 42.7261 60.4868 41.25Z" fill="#A30013"/>
<path id="Path 1257" d="M39.0167 56.0859C39.5768 55.2096 40.26 54.4072 41.0481 53.7C42.3332 52.5701 43.8522 51.6971 45.5119 51.1345C46.1744 50.9111 46.8533 50.7326 47.5433 50.6003L47.726 50.5641C47.6678 50.5641 47.6112 50.5566 47.553 50.555C46.2316 50.5281 44.9319 50.2358 43.7425 49.6979C43.3646 49.5273 43.0003 49.3316 42.6524 49.1124C41.836 48.6073 41.1178 47.976 40.5289 47.2456L34.6385 53.282C35.7975 54.285 37.0947 55.1391 38.4959 55.8218C38.6673 55.9123 38.8388 56.0074 39.0167 56.0859Z" fill="#A30013"/>
<path id="Path 1258" d="M56.3497 21.6863C55.3188 21.3967 54.2655 21.1818 53.1991 21.0435V28.5195L53.2945 28.5467C53.8652 28.7325 54.4057 28.991 54.9005 29.3148C55.3272 29.5925 55.7086 29.9265 56.0327 30.3063L61.7128 24.5083C60.8769 23.8166 59.9587 23.2166 58.9762 22.7201C58.1404 22.2935 57.2604 21.9472 56.3497 21.6863Z" fill="#A30013"/>
<path id="Path 1259" d="M48.4636 57.3763C48.2418 57.4651 48.0258 57.5659 47.8167 57.6782C49.4559 57.6486 51.0851 57.4332 52.6687 57.0368C52.1374 56.9591 51.6003 56.9217 51.0627 56.9251C50.1727 56.9117 49.2889 57.0652 48.4636 57.3763Z" fill="#A30013"/>
<path id="Path 1260" d="M51.7289 60.9302V65.447H56.0035V69.0567C55.3691 69.3619 54.7045 69.609 54.019 69.7946C53.0571 70.0538 52.0587 70.1759 51.0577 70.1568C50.0149 70.1699 48.9799 69.9878 48.0138 69.6211C47.1317 69.2827 46.3355 68.7753 45.6768 68.1316C45.2117 67.6736 44.821 67.1545 44.5172 66.5908C44.3901 66.3589 44.2767 66.1206 44.1775 65.877C43.4828 64.0205 43.4828 61.9991 44.1775 60.1425C44.3809 59.6316 44.6491 59.1452 44.9765 58.6938C45.1048 58.5156 45.243 58.3438 45.3905 58.1792C45.4843 58.0735 45.5749 57.9664 45.6752 57.8683C45.7755 57.7702 45.8369 57.7174 45.9307 57.6419C46.0245 57.5665 46.1458 57.4518 46.2542 57.3643C46.7831 56.9566 47.3739 56.6245 48.0074 56.3788C48.9734 56.0122 50.0084 55.83 51.0512 55.8431C51.9428 55.8306 52.8319 55.9322 53.6939 56.1449C53.9394 56.2093 54.1803 56.2879 54.4153 56.3803C54.4525 56.3954 54.4864 56.4135 54.5236 56.4286C54.7583 56.5268 54.9872 56.6366 55.2094 56.7576C55.4164 56.8698 55.6172 56.9917 55.811 57.1228C56.1792 57.3692 56.5235 57.6454 56.8397 57.9483L60.5401 54.1756C60.4253 54.076 60.2991 53.993 60.1795 53.8994C60.0258 53.7787 59.8754 53.6549 59.7169 53.5448C59.5584 53.4346 59.3934 53.332 59.2317 53.2294C58.3375 52.6701 57.3553 52.2445 56.3205 51.9678C55.1708 51.6676 53.9918 51.4755 52.8012 51.3943C52.2319 51.352 51.6529 51.3219 51.0544 51.3219C49.796 51.3177 48.5417 51.4581 47.32 51.7399C46.8418 51.8489 46.3705 51.9824 45.9081 52.1398C44.3937 52.6503 43.008 53.4459 41.8372 54.4774C41.1656 55.0808 40.5787 55.7613 40.0905 56.5026C39.9821 56.6656 39.8706 56.827 39.767 56.9976C39.6635 57.1681 39.5859 57.3296 39.4969 57.4986C39.3821 57.7189 39.2624 57.9347 39.1605 58.1671C37.8812 61.2758 37.8812 64.7165 39.1605 67.8253C39.7625 69.2175 40.6736 70.475 41.834 71.515C42.3087 71.9305 42.8211 72.3066 43.3656 72.6393C44.1581 73.1336 45.0105 73.5388 45.9048 73.8466C47.5541 74.4039 49.2971 74.6809 51.0512 74.6645C52.7809 74.667 54.5061 74.498 56.1976 74.1604C56.4887 74.1031 56.7766 74.0292 57.0629 73.9597C58.4418 73.6225 59.7762 73.1432 61.0415 72.5306V60.9302H51.7289Z" fill="#A30013"/>
<path id="Path 1261" d="M46.5615 11.5871V30.1203H51.9974V11.5871H59.0393V7.10059H39.5212V11.5871H46.5615Z" fill="#A30013"/>
<path id="Path 1262" d="M83.1716 56.6774V7.27129L82.6233 7.06605C78.7821 5.67975 74.8674 4.47795 70.8944 3.46536C67.5667 2.59676 64.1878 1.90897 60.7747 1.40546C59.4372 1.21833 58.1643 1.0644 56.9287 0.937635C54.2369 0.651295 51.5302 0.505191 48.821 0.5C47.9217 0.5 47.0322 0.51509 46.1459 0.54829C45.1755 0.584508 44.2051 0.643362 43.2347 0.717308C41.5397 0.844071 39.8302 1.01913 38.0511 1.25455C35.0257 1.70454 32.0312 2.31979 29.083 3.09714C23.0406 4.62283 17.3993 6.43978 17.3799 6.44431L16.788 6.63294V37.0713C16.788 41.2122 16.788 45.148 16.788 48.3819C16.788 53.0224 16.788 56.2187 16.788 56.4978C16.788 56.7121 16.7799 56.9174 16.7799 57.1467C16.8604 58.6697 17.297 60.1577 18.0592 61.5065C18.1288 61.6574 18.2129 61.8083 18.2921 61.9592C18.3406 62.0543 18.3827 62.1464 18.4344 62.2429C18.6404 62.6152 18.8744 62.9945 19.1364 63.3808C19.366 63.7198 19.6162 64.0629 19.8868 64.41C22.3247 67.3418 25.1816 69.9481 28.3778 72.1562C29.6566 73.0797 31.0254 74.0018 32.4843 74.9223C32.9484 75.2136 33.4239 75.5003 33.9043 75.784C36.5664 77.3535 39.4275 78.8022 41.9796 79.9914C46.3465 82.0347 49.7946 83.3581 49.8108 83.3657L50.1343 83.4909L50.4577 83.3672C50.4771 83.3596 53.6455 82.1599 58.1886 79.9657C62.6194 77.8372 66.8913 75.4322 70.9753 72.7673C71.2632 72.5772 71.5397 72.384 71.8163 72.1924C75.8993 69.4738 79.323 65.9835 81.8648 61.9487C81.9764 61.7525 82.0767 61.5639 82.1656 61.3858C82.8195 60.0284 83.1606 58.558 83.1668 57.0698C83.1829 56.8766 83.1749 56.7393 83.1716 56.6774ZM70.9526 70.7859C70.6292 71.0077 70.3057 71.2296 69.9822 71.4484C66.1141 73.9732 62.0735 76.2598 57.8862 78.2936C57.2861 78.5864 56.7023 78.8686 56.1508 79.1267C53.1522 80.5346 50.9462 81.4235 50.1456 81.7374C49.3709 81.4356 47.312 80.6071 44.6871 79.4255C43.9334 79.0874 43.1263 78.7147 42.2983 78.3223C39.255 76.9045 36.3042 75.3202 33.4611 73.5777C31.9619 72.6421 30.5612 71.6914 29.256 70.7437C24.2779 67.1218 20.8459 63.5257 19.6717 60.8893V60.8802C19.0036 59.7306 18.6139 58.4582 18.5299 57.1528C18.5299 56.9656 18.5396 56.7559 18.5396 56.5039V7.79947C19.6539 7.44936 22.24 6.65256 25.3502 5.78785C26.8058 5.3804 28.3908 4.95936 29.9806 4.56398C32.7113 3.85209 35.4837 3.28776 38.284 2.8738C40.0938 2.63838 41.8228 2.45729 43.5307 2.33053C45.2968 2.20074 47.0387 2.12982 48.8194 2.12982C51.4263 2.13571 54.0309 2.27526 56.6214 2.54784C57.8684 2.6746 59.1558 2.82853 60.5127 3.02018C63.7068 3.48899 66.87 4.12584 69.9871 4.92767C74.8666 6.15758 79.1671 7.56556 81.4217 8.38047V56.7649C81.4217 56.7649 81.4297 56.8615 81.4297 57.0803C81.4229 58.333 81.1365 59.5706 80.5887 60.7142C80.5629 60.7671 80.5289 60.8259 80.5014 60.8817C78.1258 64.7901 74.8676 68.1696 70.9526 70.7859ZM62.9598 46.1545C63.0497 44.2243 62.5397 42.3109 61.4912 40.6448C60.5759 39.3116 59.3448 38.1923 57.8926 37.3731C56.4985 36.5911 54.999 35.9857 53.4336 35.5728C51.8923 35.1593 50.5435 34.776 49.3143 34.3957C48.2879 34.1012 47.3136 33.6675 46.4225 33.1084C46.1636 32.9419 45.9561 32.7148 45.8207 32.45C45.6854 32.1852 45.6268 31.8919 45.651 31.5993C45.6561 31.4801 45.6718 31.3615 45.6979 31.2447H53.1943V29.7205C53.9331 29.9864 54.5848 30.4275 55.0849 31.0002L55.9583 32.0324L56.9093 31.0621L62.5894 25.2657L63.4078 24.4297L62.5004 23.6751C60.8255 22.2744 58.8436 21.2311 56.6926 20.6177C55.5486 20.2974 54.3786 20.0642 53.1943 19.9205V12.7055H60.2394V5.98403H38.3212V12.7055H45.3599V20.2827C45.0671 20.3506 44.7728 20.414 44.4833 20.4939C42.68 20.9785 40.9896 21.7728 39.4986 22.8361C38.0341 23.893 36.8333 25.2344 35.9793 26.7672C35.0671 28.4625 34.6108 30.3395 34.6499 32.2362C34.5655 34.1156 35.0915 35.975 36.1588 37.5708C37.1047 38.8769 38.3485 39.9715 39.8011 40.7761C41.2201 41.5588 42.7359 42.1776 44.3151 42.6187C45.7998 43.0398 47.2117 43.4668 48.5121 43.8909C49.5623 44.2153 50.5537 44.6864 51.4524 45.2883C51.7221 45.4714 51.9385 45.7144 52.082 45.9954C52.2255 46.2763 52.2915 46.5862 52.274 46.897C52.2876 47.2533 52.1843 47.605 51.978 47.9051C51.7324 48.2358 51.4101 48.5107 51.0351 48.7094C50.5589 48.9598 50.0454 49.1429 49.5116 49.2527C47.7403 49.6407 45.8795 49.4412 44.2488 48.6883C43.1538 48.2044 42.2013 47.4793 41.4734 46.5756L40.6033 45.4966L39.6329 46.4956L33.7425 52.5319L32.942 53.3529L33.8153 54.1074C35.1895 55.304 36.7475 56.3025 38.4377 57.0698C38.3196 57.2961 38.1951 57.5225 38.0916 57.7549C36.6964 61.1298 36.6964 64.8682 38.0916 68.2431C38.7566 69.7743 39.7608 71.1571 41.0384 72.301C42.3227 73.4326 43.8427 74.3059 45.5038 74.8665C47.2818 75.4673 49.1604 75.7667 51.0513 75.7508C52.8624 75.7519 54.6687 75.5754 56.4403 75.2241C58.2293 74.8687 59.9588 74.2895 61.5818 73.5023L62.2044 73.2005V59.8556H50.5726V66.5288H54.8472V68.3789C54.5151 68.5077 54.1248 68.637 53.6762 68.7667C52.8243 68.9915 51.9413 69.0968 51.0561 69.0791C50.1667 69.0909 49.2836 68.937 48.4587 68.6264C47.7249 68.3459 47.0633 67.923 46.5179 67.3859C45.9652 66.8416 45.5376 66.1976 45.2612 65.4935C44.6611 63.8807 44.6611 62.1263 45.2612 60.5135C45.5148 59.8737 45.8932 59.2833 46.3772 58.772C46.6748 58.7811 46.9659 58.8052 47.2683 58.8052C49.2523 58.8137 51.2279 58.5664 53.1393 58.0703C53.6245 57.9435 54.0919 57.7972 54.5464 57.6342C55.0878 57.9178 55.582 58.2737 56.0133 58.6905L56.8656 59.5115L57.6953 58.6679L61.3942 54.8952L62.1705 54.1044L61.3262 53.374C61.1774 53.2457 61.0157 53.1371 60.8605 53.0164C61.1552 52.6066 61.4226 52.1802 61.661 51.7397C62.5526 49.9972 62.9972 48.085 62.9598 46.1545ZM53.1959 21.0433C54.2617 21.1815 55.3145 21.3965 56.3448 21.6861C56.8073 21.8179 57.2618 21.9726 57.7066 22.1494C58.0964 22.3003 58.4733 22.4799 58.8388 22.664C58.8824 22.6851 58.9261 22.7017 58.9682 22.7229H58.9779C59.4232 22.9494 59.8551 23.1983 60.2717 23.4684C60.3089 23.4925 60.3494 23.5121 60.3866 23.5363C60.7844 23.7989 61.1694 24.0871 61.5462 24.3904C61.5947 24.4297 61.6465 24.4613 61.695 24.4991L56.0343 30.3076C55.8718 30.1166 55.6945 29.937 55.5038 29.7703C55.3544 29.6439 55.1978 29.525 55.0348 29.4142C54.9879 29.381 54.9458 29.3433 54.8973 29.3116C54.6853 29.1743 54.4643 29.0493 54.2358 28.9373C54.2035 28.9207 54.1744 28.9011 54.142 28.8845C53.9156 28.7807 53.6834 28.688 53.4466 28.6068C53.3948 28.5887 53.3495 28.5646 53.2978 28.548L53.2007 28.5193V21.0433H53.1959ZM45.2806 11.5888H39.5197V7.10227H59.0393V11.5888H51.991V30.1219H46.5599V30.0133V28.714V21.1791V20.0442V11.5933L45.2806 11.5888ZM34.6337 53.288L40.524 47.2516C40.8032 47.5942 41.1115 47.9151 41.4459 48.2114L41.5882 48.3352C41.9195 48.621 42.2736 48.8829 42.6476 49.1184C42.9955 49.3377 43.3598 49.5333 43.7377 49.7039C44.9271 50.2418 46.2267 50.5342 47.5481 50.5611C47.6064 50.5611 47.663 50.5701 47.7212 50.5701C47.4818 50.6154 47.2489 50.6727 47.0128 50.721C46.8511 50.7557 46.7007 50.7874 46.5486 50.8267C46.1944 50.9187 45.8483 51.0198 45.5087 51.1375C43.8487 51.6995 42.3296 52.5726 41.0448 53.703C40.2579 54.4104 39.5758 55.2128 39.0167 56.0889C37.7818 55.5355 36.6225 54.846 35.5637 54.035L35.5216 54.0018C35.2224 53.7724 34.9248 53.54 34.6337 53.288ZM47.8635 57.6794H47.8053C48.0145 57.5672 48.2305 57.4664 48.4522 57.3776C49.2769 57.0661 50.1601 56.9122 51.0497 56.9249C51.5874 56.9215 52.1245 56.9589 52.6557 57.0366C51.0916 57.4291 49.4827 57.6449 47.8635 57.6794ZM60.5451 54.1859L56.843 57.9586C56.5266 57.6555 56.1824 57.3788 55.8144 57.1316C55.6219 56.9955 55.4222 56.8686 55.2159 56.7514C54.9951 56.6305 54.7673 56.5211 54.5334 56.4239C54.4962 56.4088 54.4623 56.3892 54.4251 56.3756C54.1651 56.2754 53.8982 56.1917 53.6261 56.1251C53.3032 56.046 52.9753 55.9855 52.6444 55.944C52.5279 55.9289 52.4082 55.9153 52.2853 55.9032C51.936 55.87 51.5721 55.8489 51.1855 55.8444H51.061C50.0183 55.831 48.9833 56.0126 48.0172 56.3786C47.6515 56.5234 47.2998 56.6971 46.9659 56.8977C46.8931 56.9415 46.8268 56.9913 46.7573 57.0366C46.467 57.2183 46.1918 57.42 45.934 57.6402C45.8499 57.7142 45.761 57.7911 45.6817 57.8636C45.6025 57.936 45.4909 58.0703 45.3971 58.1744C45.2495 58.3391 45.1113 58.5109 44.983 58.689C44.6564 59.1401 44.3887 59.6259 44.1857 60.1362C43.4927 61.9905 43.4927 64.009 44.1857 65.8633C44.2849 66.1068 44.3982 66.3451 44.5253 66.5771C44.6689 66.8418 44.831 67.0973 45.0105 67.3422L45.0768 67.4312C45.2598 67.6744 45.4615 67.9048 45.6801 68.1208C46.3388 68.7645 47.135 69.272 48.0172 69.6103C48.9832 69.977 50.0182 70.1592 51.061 70.146C52.062 70.1651 53.0604 70.043 54.0223 69.7839C54.7079 69.5985 55.3725 69.3513 56.0068 69.0459V65.4392H51.729V60.933H61.0481V72.5531C60.8604 72.6451 60.6664 72.7236 60.4771 72.8081C60.3348 72.8715 60.1941 72.9394 60.0518 72.9982C59.7687 73.1174 59.4825 73.2246 59.1962 73.3302L59.0571 73.3815C58.1276 73.7172 57.1709 73.9832 56.196 74.1768C54.5045 74.5139 52.7794 74.6829 51.0497 74.6809C49.2955 74.6972 47.5524 74.4197 45.9033 73.8614C44.3888 73.3513 43.003 72.5555 41.8325 71.5238C40.6716 70.4845 39.7599 69.2275 39.1574 67.8356C37.8774 64.7239 37.8774 61.2801 39.1574 58.1684C39.2625 57.933 39.3838 57.7157 39.5019 57.4863C39.5876 57.3218 39.6717 57.1558 39.7655 56.9973C39.8593 56.8389 39.9774 56.6653 40.089 56.5024C40.5774 55.7618 41.1643 55.0818 41.8357 54.4787C43.0067 53.4475 44.3923 52.6519 45.9065 52.1411C45.9502 52.126 45.9955 52.1185 46.0392 52.1034C46.4478 51.9665 46.8662 51.8483 47.2942 51.7487H47.3185C47.6204 51.6783 47.9271 51.6169 48.2387 51.5646C48.3827 51.5405 48.5315 51.5224 48.6787 51.5012C48.9439 51.4635 49.214 51.4318 49.4873 51.4077L49.8253 51.379C50.2281 51.3503 50.634 51.3307 51.0545 51.3307C51.1176 51.3307 51.1758 51.3307 51.2389 51.3382C51.7564 51.3382 52.2611 51.3639 52.7576 51.4001H52.7996L52.8789 51.4092C53.4029 51.4504 53.914 51.5098 54.4121 51.5872L54.755 51.6401C55.2612 51.7276 55.7594 51.8287 56.2381 51.9555C56.264 51.9555 56.2931 51.966 56.319 51.9736C57.3538 52.2503 58.336 52.676 59.2302 53.2352C59.3919 53.3378 59.5633 53.4389 59.7154 53.5506C59.8674 53.6623 60.0243 53.7845 60.1779 53.9052C60.2976 53.9988 60.4221 54.0818 60.5386 54.1814L60.5451 54.1859ZM60.592 51.2598C60.3867 51.6399 60.1583 52.0087 59.9078 52.3644C59.6814 52.2226 59.4501 52.0913 59.2156 51.9645C58.8776 51.7834 58.5315 51.6174 58.174 51.468C58.0705 51.4243 57.9654 51.385 57.8603 51.3443C57.4853 51.1967 57.1019 51.0682 56.712 50.9595L56.6408 50.9368C56.2478 50.8327 55.8435 50.7422 55.4327 50.6607L55.1512 50.6094C54.8278 50.5505 54.5043 50.5007 54.1663 50.4585C54.0547 50.4434 53.9463 50.4268 53.8331 50.4147C53.4191 50.3664 52.9986 50.3272 52.57 50.3C52.2255 50.2789 51.8713 50.2743 51.5187 50.2668C51.357 50.2668 51.2114 50.2532 51.0529 50.2532C50.6858 50.2532 50.3283 50.2743 49.9693 50.294C50.5572 50.1605 51.123 49.9534 51.6513 49.6782C51.9145 49.5349 52.1606 49.366 52.3856 49.1742C52.6089 48.9848 52.8076 48.7716 52.9775 48.5389C53.1792 48.2563 53.3209 47.9402 53.3948 47.6078C53.4513 47.377 53.4806 47.1412 53.4822 46.9045C53.5014 46.4209 53.3936 45.9402 53.1681 45.5043C52.9426 45.0685 52.6062 44.6907 52.1883 44.404C52.1495 44.3768 52.1042 44.3512 52.0637 44.324C51.8583 44.1867 51.6481 44.0508 51.4168 43.9226L51.3327 43.8788C51.0432 43.7173 50.7327 43.5664 50.4076 43.4261L50.1456 43.3129C49.8221 43.1741 49.4728 43.0413 49.1072 42.9175C49.0442 42.8949 48.986 42.8723 48.9213 42.8511C47.6101 42.4225 46.1944 41.993 44.6741 41.5624C43.1877 41.1495 41.7613 40.5676 40.427 39.8299C39.1251 39.1113 38.0104 38.132 37.1632 36.9627C36.2333 35.5513 35.7823 33.9106 35.8693 32.2558C35.8285 30.5392 36.2383 28.8394 37.0629 27.3045C37.4799 26.5625 37.9861 25.8674 38.5719 25.2325C38.5978 25.2038 38.6269 25.1782 38.6544 25.1495C38.8792 24.9095 39.1089 24.6741 39.3563 24.4553C39.641 24.2007 39.9395 23.9599 40.2507 23.734L40.2685 23.7219C40.6321 23.4631 41.01 23.2223 41.4006 23.0005C41.6772 22.8496 41.9635 22.6987 42.2562 22.5478C42.3985 22.4799 42.5473 22.415 42.6929 22.3501C42.908 22.2551 43.1263 22.1645 43.3479 22.077C43.4773 22.0272 43.6067 21.9759 43.7393 21.9261C44.0935 21.7993 44.4558 21.6816 44.8294 21.5775H44.8439C44.9151 21.5579 44.9879 21.5428 45.0607 21.5247L45.3841 21.4477V29.5349C45.2486 29.655 45.1227 29.7841 45.0073 29.9212C44.6431 30.4157 44.4573 31.0057 44.4768 31.6054C44.4779 31.808 44.499 32.01 44.5399 32.209C44.5399 32.2332 44.5399 32.2588 44.5399 32.2815C44.5843 32.4886 44.6515 32.6908 44.7404 32.8851C44.7846 32.9764 44.8337 33.0655 44.8876 33.1522C44.9618 33.2784 45.0473 33.3985 45.1432 33.5114C45.1836 33.5581 45.2321 33.6019 45.2758 33.6457C45.4151 33.7871 45.569 33.9155 45.7351 34.029C46.2074 34.336 46.7074 34.6041 47.2295 34.8303C47.7871 35.0746 48.3601 35.2868 48.9455 35.4656L49.1396 35.523C49.3693 35.5924 49.6135 35.6633 49.848 35.7327L50.3332 35.8746L50.7715 36.0044L51.2923 36.1553C51.5705 36.2338 51.8616 36.3062 52.1479 36.3907C52.4713 36.4797 52.7818 36.5673 53.1183 36.6578L53.1781 36.6759C53.6164 36.7936 54.045 36.931 54.472 37.0773H54.4914L54.5286 37.0924C54.9523 37.2433 55.3663 37.4078 55.7723 37.5859L56.0359 37.7021C56.4386 37.8877 56.8349 38.0839 57.2198 38.2982C57.2425 38.3103 57.2667 38.3208 57.2894 38.3329C57.5801 38.4981 57.8614 38.6774 58.132 38.8701C58.2048 38.9215 58.2743 38.9758 58.3455 39.021C58.545 39.1699 58.738 39.3264 58.9245 39.4904C58.994 39.5522 59.0652 39.6126 59.1331 39.676C59.3703 39.8941 59.5954 40.1232 59.8076 40.3626C59.945 40.5135 60.0696 40.6931 60.199 40.8621C60.2976 40.9889 60.4027 41.1081 60.4949 41.2409C61.1776 42.2859 61.587 43.4662 61.6901 44.6862C61.7446 45.1704 61.771 45.6571 61.7694 46.144C61.8118 47.9113 61.4085 49.6646 60.592 51.2598Z" fill="white"/>
</g>
</g>
<defs>
<clipPath id="clip0_1545_10138">
<rect width="100" height="83" fill="white" transform="translate(0 0.5)"/>
</clipPath>
</defs>
</svg>
