<svg width="32" height="27" viewBox="0 0 32 27" fill="none" xmlns="http://www.w3.org/2000/svg">
<g opacity="1">
<path d="M31.0725 14.7371H0.927545C0.309188 14.7371 0 14.1187 0 13.5004C0 12.882 0.309188 12.4183 0.927545 12.2637H31.0725C31.6908 12.2637 32 12.882 32 13.5004C32 14.1187 31.5362 14.5825 31.0725 14.7371Z" fill="#000"/>
<path d="M31.0725 24.2107H0.927545C0.309188 24.2107 0 23.5924 0 22.974C0 22.3556 0.309188 21.8919 0.927545 21.7373H31.0725C31.6908 21.7373 32 22.3556 32 22.974C32 23.5924 31.5362 24.0561 31.0725 24.2107Z" fill="#000"/>
<path d="M31.0725 5.26343H0.927545C0.309188 5.26343 0 4.64509 0 4.02674C0 3.40838 0.309188 2.94463 0.927545 2.79004H31.0725C31.6908 2.79004 32 3.40838 32 4.02674C32 4.64509 31.5362 5.10884 31.0725 5.26343Z" fill="#000"/>
</g>
</svg>
