<svg xmlns="http://www.w3.org/2000/svg" width="30" height="31" viewBox="0 0 30 31" fill="none">
  <g clip-path="url(#clip0_452_10530)">
    <path d="M22.2178 8.09269L16.0655 1.94038C12.987 3.05961 9.82549 4.92653 7.12087 7.63115C4.41626 10.3358 2.5101 13.4604 1.35626 16.5042L14.0578 29.2058C17.0555 28.0058 20.1409 26.0627 22.8478 23.3581C25.5547 20.6535 27.4563 17.5265 28.6216 14.4965L22.384 8.25884M21.4147 11.5635C21.7124 11.8611 21.7124 12.3411 21.417 12.6365C21.1216 12.9319 20.6393 12.9319 20.344 12.6342L19.6309 11.9211L18.3801 13.1719L19.0932 13.885C19.3909 14.1827 19.3909 14.6627 19.0955 14.9581C18.8001 15.2535 18.3178 15.2535 18.0224 14.9558L17.307 14.2427L16.0563 15.4935L16.7693 16.2065C17.067 16.5042 17.067 16.9842 16.7693 17.2819C16.474 17.5773 15.9916 17.5773 15.694 17.2819L14.9809 16.5688L13.7324 17.8173L14.4455 18.5304C14.7432 18.8281 14.7432 19.3081 14.4455 19.6058C14.1501 19.9011 13.6678 19.9011 13.3724 19.6035L12.6593 18.8904L11.4086 20.1411L12.1216 20.8542C12.4193 21.1519 12.4193 21.6319 12.1216 21.9296C11.8263 22.225 11.3463 22.225 11.0486 21.9273L8.54472 19.4235C8.24934 19.1281 8.24934 18.6481 8.54472 18.3527C8.84011 18.0573 9.3201 18.055 9.6178 18.3527L10.3332 19.0681L11.584 17.8173L10.8686 17.1019C10.5732 16.8065 10.5732 16.3265 10.8686 16.0311C11.164 15.7358 11.6463 15.7335 11.9416 16.0288L12.657 16.7442L13.9055 15.4958L13.1901 14.7804C12.8947 14.485 12.8947 14.0027 13.1924 13.7073C13.4901 13.4096 13.9701 13.4096 14.2655 13.705L14.9809 14.4204L16.2316 13.1696L15.5163 12.4542C15.2209 12.1588 15.2209 11.6788 15.5163 11.3811C15.8116 11.0858 16.2916 11.0858 16.587 11.3811L17.3024 12.0965L18.5532 10.8458L17.8378 10.1304C17.5424 9.83499 17.5424 9.35499 17.8378 9.05961C18.1332 8.76423 18.6132 8.76423 18.9109 9.05961" fill="#000"/>
    <path d="M1.80164 28.8435C1.8178 28.8619 1.83395 28.8804 1.85011 28.8965C3.57626 30.6227 6.87395 31.0865 10.647 30.2627L0.35472 19.9727C-0.372203 23.6511 0.0847203 26.8865 1.64472 28.6704L1.80164 28.8435Z" fill="#000"/>
    <path d="M28.1555 2.1573C26.4916 0.733455 23.2678 0.283455 19.5686 0.978071L29.6393 11.0488C30.4309 7.24346 29.9693 3.95038 28.384 2.36269C28.3678 2.34653 28.347 2.33038 28.3309 2.31422L28.1555 2.1573Z" fill="#000"/>
  </g>
  <defs>
    <clipPath id="clip0_452_10530">
      <rect width="30" height="30" fill="white" transform="translate(0 0.666504)"/>
    </clipPath>
  </defs>
</svg>