<svg width="34" height="35" viewBox="0 0 34 35" fill="none" xmlns="http://www.w3.org/2000/svg">
<g clip-path="url(#clip0_435_8108)" filter="url(#filter0_d_435_8108)">
<g opacity="1">
<path d="M16.725 1.9002L16.925 2.2002L17.825 3.7002L18.525 4.8002L19.225 5.9002L20.425 5.4002L21.925 4.8002L23.125 4.3002C23.225 4.3002 23.325 4.2002 23.425 4.2002L23.625 4.1002V4.4002L23.325 7.6002L23.225 8.9002L24.525 9.2002L25.625 9.5002L27.325 9.9002L27.625 10.0002C27.725 10.0002 27.825 10.0002 27.825 10.1002L27.625 10.2002L25.825 12.3002L25.625 12.5002L24.725 13.5002L25.625 14.5002L27.425 16.6002C27.525 16.7002 27.525 16.8002 27.625 16.8002C27.725 16.8002 27.725 17.0002 27.825 17.0002L27.525 17.2002L24.425 17.9002L23.225 18.2002L23.325 19.5002V19.7002L23.525 22.4002C23.525 22.5002 23.525 22.6002 23.525 22.7002C23.525 22.8002 23.525 22.9002 23.525 22.9002L23.325 22.8002L20.425 21.6002L19.225 21.1002L18.525 22.2002L18.025 23.1002L16.825 25.1002L16.625 24.8002L16.225 24.2002L15.425 22.9002L15.025 22.2002L14.325 21.1002L13.125 21.6002L11.725 22.2002L10.425 22.8002C10.325 22.8002 10.225 22.9002 10.125 22.9002C10.025 22.9002 10.025 23.0002 9.92499 23.0002V22.7002L10.225 19.5002L10.325 18.2002L9.02499 17.9002L8.72499 17.8002L6.22499 17.2002H5.92499C5.82499 17.2002 5.72499 17.2002 5.72499 17.1002L5.82499 16.9002L5.92499 16.8002L6.52499 16.2002L8.02499 14.5002L8.825 13.5002L7.92499 12.5002L6.12499 10.4002C6.02499 10.3002 5.92499 10.2002 5.92499 10.2002C5.82499 10.1002 5.72499 10.0002 5.72499 9.9002H6.02499L9.02499 9.10019L10.325 8.8002L10.225 7.5002L10.125 5.9002L10.025 4.7002C10.025 4.6002 10.025 4.5002 10.025 4.4002C10.025 4.3002 10.025 4.2002 10.025 4.2002H10.125L11.625 4.8002L13.025 5.4002L14.225 5.9002L15.025 4.8002L16.225 2.8002L16.525 2.3002C16.625 2.2002 16.625 2.1002 16.725 2.0002V1.9002ZM16.725 0.200195C16.625 0.200195 16.525 0.200195 16.425 0.200195C15.725 0.300195 15.425 1.0002 15.125 1.5002C14.625 2.3002 14.125 3.1002 13.625 4.0002L10.725 2.8002L10.225 2.6002C10.025 2.5002 9.92499 2.5002 9.72499 2.5002C9.32499 2.5002 8.92499 2.7002 8.62499 3.1002C8.32499 3.6002 8.325 4.2002 8.42499 4.8002C8.52499 5.7002 8.62499 6.7002 8.62499 7.7002L5.62499 8.4002L5.02499 8.5002C4.52499 8.7002 4.02499 9.10019 4.02499 9.7002C4.02499 10.4002 4.52499 10.9002 4.92499 11.4002C5.52499 12.1002 6.12499 12.8002 6.72499 13.5002L4.72499 15.8002C4.62499 15.9002 4.42499 16.1002 4.32499 16.2002C3.92499 16.6002 3.82499 17.3002 4.12499 17.8002C4.52499 18.4002 5.22499 18.4002 5.82499 18.6002C6.72499 18.8002 7.72499 19.0002 8.62499 19.3002C8.52499 20.3002 8.42499 21.4002 8.325 22.5002C8.325 22.7002 8.325 22.9002 8.325 23.1002C8.325 23.7002 8.62499 24.2002 9.22499 24.4002C9.32499 24.5002 9.52499 24.5002 9.62499 24.5002C10.125 24.4002 10.525 24.3002 10.925 24.1002L13.625 23.0002C14.025 23.7002 14.425 24.3002 14.825 25.0002L15.525 26.1002C15.725 26.5002 16.225 26.8002 16.725 26.8002C17.125 26.8002 17.525 26.6002 17.825 26.2002C17.825 26.2002 17.825 26.2002 17.925 26.1002C18.525 25.0002 19.225 24.0002 19.825 22.9002L22.825 24.1002L23.325 24.3002C23.425 24.4002 23.625 24.4002 23.825 24.4002C24.225 24.4002 24.625 24.2002 24.925 23.8002C25.225 23.3002 25.225 22.6002 25.125 22.1002C25.025 21.1002 24.925 20.2002 24.925 19.2002L28.025 18.5002L28.625 18.4002C29.225 18.3002 29.625 17.8002 29.625 17.2002C29.625 16.5002 29.125 16.0002 28.725 15.5002C28.125 14.8002 27.525 14.1002 26.925 13.4002C27.625 12.6002 28.225 11.8002 28.925 11.1002C29.025 11.0002 29.225 10.8002 29.325 10.6002C29.725 10.2002 29.825 9.5002 29.525 9.0002C29.125 8.4002 28.425 8.4002 27.825 8.2002C26.925 8.0002 25.925 7.8002 25.025 7.5002C25.125 6.4002 25.225 5.4002 25.325 4.3002C25.325 4.1002 25.325 3.9002 25.325 3.7002C25.325 3.1002 25.025 2.6002 24.425 2.4002C24.325 2.3002 24.125 2.3002 24.025 2.3002C23.525 2.4002 23.125 2.5002 22.725 2.7002L20.025 3.8002C19.525 2.9002 18.925 2.0002 18.425 1.1002C18.125 1.2002 18.025 1.0002 17.925 0.900195C17.725 0.400195 17.225 0.200195 16.725 0.200195Z" fill="#000"/>
</g>
</g>
<defs>
<filter id="filter0_d_435_8108" x="0.0250244" y="0.200195" width="33.5" height="34.5996" filterUnits="userSpaceOnUse" color-interpolation-filters="sRGB">
<feFlood flood-opacity="0" result="BackgroundImageFix"/>
<feColorMatrix in="SourceAlpha" type="matrix" values="0 0 0 0 0 0 0 0 0 0 0 0 0 0 0 0 0 0 127 0" result="hardAlpha"/>
<feOffset dy="4"/>
<feGaussianBlur stdDeviation="2"/>
<feComposite in2="hardAlpha" operator="out"/>
<feColorMatrix type="matrix" values="0 0 0 0 0 0 0 0 0 0 0 0 0 0 0 0 0 0 0.25 0"/>
<feBlend mode="normal" in2="BackgroundImageFix" result="effect1_dropShadow_435_8108"/>
<feBlend mode="normal" in="SourceGraphic" in2="effect1_dropShadow_435_8108" result="shape"/>
</filter>
<clipPath id="clip0_435_8108">
<rect width="25.5" height="26.6" fill="#000" transform="translate(4.02502 0.200195)"/>
</clipPath>
</defs>
</svg>
