<svg width="28" height="27" viewBox="0 0 28 27" fill="none" xmlns="http://www.w3.org/2000/svg">
<g clip-path="url(#clip0_435_8116)">
<path d="M24.7611 6.01459C23.3998 7.37594 21.4712 9.41795 21.4712 9.41795C21.2443 9.5314 21.0174 9.5314 20.904 9.41795C20.7905 9.30451 20.7905 8.96417 20.904 8.85073C20.904 8.85073 21.925 7.71627 23.0595 6.58182C25.7821 3.74568 27.03 2.27089 26.9166 2.15745C26.8032 2.044 25.7821 2.83812 23.1729 5.44736C22.4922 6.12804 20.2233 8.2835 20.2233 8.2835C19.9964 8.39694 19.7695 8.39694 19.6561 8.2835C19.5426 8.17005 19.5426 7.82972 19.6561 7.71627L22.4922 4.76669C25.1015 2.15745 25.8956 1.13644 25.7821 1.02299C25.6687 0.909549 24.1939 2.15745 21.3578 4.88014C20.2233 6.01459 19.0889 7.0356 19.0889 7.0356C18.9754 7.14905 18.6351 7.14905 18.5216 7.0356C18.4082 6.92215 18.4082 6.58182 18.5216 6.46837C18.5216 6.46837 20.5637 4.5398 21.925 3.17846C24.5342 0.682658 24.8746 0.115431 24.8746 0.115431C24.7611 0.00198552 23.967 0.569212 21.8116 2.38434C20.4502 3.51879 18.7485 5.10703 17.5006 6.35493L17.3872 6.46837C16.9334 6.92215 17.2737 8.39695 17.5006 9.30451C16.4796 10.3255 15.2317 11.46 14.551 12.0272C14.2107 12.2541 13.8704 12.5944 13.4166 13.0482C12.9628 12.7079 12.6225 12.2541 12.2821 11.9138L7.51744 7.48938L1.39138 1.47678C1.05105 1.13644 0.824158 1.59022 0.824158 1.81711C0.824158 5.56081 6.04264 12.9348 8.87878 13.7289C9.78634 13.9558 10.8074 13.9558 11.7149 13.8423C11.7149 13.8423 11.8284 14.0692 12.1687 14.2961C8.425 17.4726 2.97962 22.1238 2.52584 22.5776C1.73172 23.3717 1.27794 25.5272 1.84517 26.2079C2.41239 26.8885 4.56786 26.4348 5.47542 25.5272C5.81575 25.1869 8.53844 22.0104 11.1477 18.9474C11.6015 18.4936 13.53 16.1112 13.6435 15.9978C16.3662 19.0608 21.2443 24.5062 22.1519 25.4138C23.5132 26.7751 25.1015 26.6617 25.7821 25.981C25.8956 25.8675 26.1225 25.5272 25.3284 24.8465L14.8914 14.523C15.2317 14.0692 15.5721 13.7289 15.9124 13.3885C16.5931 12.7079 17.6141 11.46 18.6351 10.439C19.6561 10.6659 21.1309 10.8927 21.4712 10.5524L21.5847 10.439C22.946 9.07762 24.4208 7.48938 25.5552 6.12804C27.3704 3.97257 27.9376 3.06501 27.8242 3.06501C27.7107 2.95157 27.2569 3.40535 24.7611 6.01459Z" fill="#000"/>
</g>
<defs>
<clipPath id="clip0_435_8116">
<rect width="27" height="26.4328" fill="#000" transform="translate(0.349976 0.283203)"/>
</clipPath>
</defs>
</svg>
