<svg xmlns="http://www.w3.org/2000/svg" width="20" height="20" viewBox="0 0 20 20" fill="none">
  <path d="M12.9165 0.833008H6.24984C5.09984 0.833008 4.1665 1.76634 4.1665 2.91634V17.083C4.1665 18.233 5.09984 19.1663 6.24984 19.1663H12.9165C14.0665 19.1663 14.9998 18.233 14.9998 17.083V2.91634C14.9998 1.76634 14.0665 0.833008 12.9165 0.833008ZM9.58317 18.333C8.8915 18.333 8.33317 17.7747 8.33317 17.083C8.33317 16.3913 8.8915 15.833 9.58317 15.833C10.2748 15.833 10.8332 16.3913 10.8332 17.083C10.8332 17.7747 10.2748 18.333 9.58317 18.333ZM13.3332 14.9997H5.83317V3.33301H13.3332V14.9997Z" fill="#000"/>
</svg>