<svg xmlns="http://www.w3.org/2000/svg" width="30" height="31" viewBox="0 0 30 31" fill="none">
  <g clip-path="url(#clip0_452_10514)">
    <path d="M29.3626 15.595C29.1249 15.5696 27.7541 14.5219 26.7618 13.2758C26.1295 12.4796 25.308 10.7004 24.4588 9.21425H24.4634C25.8526 9.48887 26.6095 9.3181 27.2857 8.93964C26.3372 8.79195 25.8688 8.79425 25.2041 7.95887C25.2041 7.95887 24.6549 7.43041 24.0111 6.95502C25.188 7.07502 26.0788 7.5481 26.0788 7.5481C26.0788 7.5481 24.3688 6.02733 22.6011 5.82656C20.8334 5.62348 20.7918 5.80579 20.2518 5.96272L20.0811 5.95118C20.0141 5.41579 19.8411 4.30579 19.5111 3.71041C19.0634 2.90502 19.0126 2.03733 18.6849 2.17579C18.3549 2.31425 18.168 3.11964 17.9718 3.86502C17.7826 4.61041 17.8195 5.49887 17.8195 5.49887C17.8195 5.49887 17.6626 5.54964 17.2749 5.35348C16.8872 5.15964 16.9426 3.98502 15.8164 3.46118C14.6949 2.93502 13.5457 2.64887 13.188 2.63502C12.8303 2.61656 13.4257 3.59041 13.8803 4.17887C14.3349 4.76502 15.048 5.75272 15.1518 5.80118C15.2534 5.85425 14.0834 5.49195 12.3918 6.09425C10.7072 6.69425 9.9826 6.86041 8.93491 6.92272C7.88952 6.98964 7.41183 6.62271 7.41183 6.62271C7.41183 6.62271 7.81337 7.34964 9.06414 7.39118C10.3172 7.43272 11.3972 6.96656 11.8588 7.07733C12.318 7.18348 12.5234 7.34733 12.5326 7.35195C12.5234 7.34733 11.5241 7.13733 10.6403 7.50887C9.74722 7.88041 9.12876 8.08118 8.14337 8.18041C7.15799 8.28195 6.36876 8.03272 6.36876 8.03272C6.36876 8.03272 6.64799 8.40887 7.11876 8.62118C7.58722 8.82656 8.85876 8.84502 8.85876 8.84502C8.85876 8.84502 7.63799 9.27887 6.94568 9.34348C6.25568 9.40579 5.61183 9.2281 5.61183 9.2281C5.61183 9.2281 5.97414 9.9781 6.89491 10.1189C7.81799 10.2573 8.11337 10.2619 8.29337 10.2481C8.47106 10.2389 7.1926 10.7143 6.33645 11.2427C5.47337 11.7735 5.1226 12.7866 5.1226 12.7866C5.1226 12.7866 5.79183 12.0712 6.28337 12.0389C6.77952 12.0089 7.56414 11.8796 7.56414 11.8796C7.56414 11.8796 6.59722 12.9135 5.66953 13.3289C4.74645 13.7443 4.23645 13.8135 4.23645 13.8135C4.23645 13.8135 4.49491 14.1573 5.52183 14.0904C6.53029 14.0258 6.92491 13.9658 6.94106 13.9635C6.9226 13.9727 4.38876 14.3696 3.5326 15.1935C2.67645 16.0173 0.320295 15.6066 -0.0097052 16.045C-0.0097052 16.045 -0.159706 26.4573 14.4872 29.1596C14.358 27.2119 14.1457 25.3681 14.328 24.7381C14.5126 24.1081 14.7941 22.2666 15.7657 20.6673C20.6741 21.1589 22.9934 20.6512 24.1611 18.5627C24.8372 18.6735 25.2203 18.9596 25.6357 19.5896C26.0488 20.2196 26.9741 20.5866 27.4057 20.4804C27.8349 20.3743 28.4534 20.0581 28.4534 20.0581C28.818 19.9819 29.1849 19.9058 29.5518 19.8273C29.5518 19.8273 29.9857 19.8019 29.9626 18.7681C29.9372 17.7343 29.9026 17.8612 29.9926 17.3766C30.078 16.9035 29.6026 15.6227 29.3626 15.595ZM21.6364 19.9981C20.1295 20.4366 17.7434 20.3904 15.9988 20.185C16.8964 18.7635 16.8249 16.8458 18.8395 16.3589C18.8395 16.3589 21.6918 18.1819 22.6518 18.3366C23.6118 18.4912 23.2564 18.4266 23.5334 18.4589C23.508 18.8119 23.1434 19.5596 21.6364 19.9981Z" fill="#000"/>
  </g>
  <defs>
    <clipPath id="clip0_452_10514">
      <rect width="30" height="30" fill="white" transform="translate(0 0.666504)"/>
    </clipPath>
  </defs>
</svg>