<svg xmlns="http://www.w3.org/2000/svg" width="30" height="31" viewBox="0 0 30 31" fill="none">
  <g clip-path="url(#clip0_452_10516)">
    <path d="M7.63436 7.21572C17.6936 -2.05889 25.339 1.26649 25.339 1.26649C25.339 1.26649 14.5921 1.31496 0.270515 23.388C0.270515 23.388 -0.717178 14.9142 7.63436 7.21572ZM5.36359 27.6526C2.69128 25.0034 6.22205 17.2357 12.3836 11.0188C18.5451 4.80188 25.9713 1.50188 28.6436 4.15111C31.3159 6.80034 28.2236 14.3973 22.0621 20.6119C15.9028 26.8311 8.0359 30.3019 5.36359 27.6526ZM29.869 11.7457C29.869 11.7457 26.6521 26.6926 10.7636 30.6526C10.7636 30.6526 23.3221 25.9726 29.869 11.7457Z" fill="#000"/>
  </g>
  <defs>
    <clipPath id="clip0_452_10516">
      <rect width="30" height="30" fill="white" transform="translate(0 0.666504)"/>
    </clipPath>
  </defs>
</svg>