<svg width="20" height="20" viewBox="0 0 20 20" fill="none" xmlns="http://www.w3.org/2000/svg">
<g clip-path="url(#clip0_1851_2103)">
<path d="M10.2815 19.519C10.6366 19.0866 10.878 17.7802 10.5707 15.931C10.2287 13.8751 9.30916 11.8142 8.0468 10.278C6.77126 8.72382 5.17683 7.61912 3.55768 7.1666C2.18408 6.78231 0.967038 6.93483 0.456985 7.55591C-0.0324678 8.15191 -0.129699 9.60076 0.209787 11.2463C0.6086 13.1838 1.53065 15.1062 2.80619 16.6584C4.08339 18.2136 5.69265 19.3224 7.33652 19.7799C8.64502 20.1441 9.85629 20.0367 10.2815 19.519ZM6.63859 16.7899C6.51335 16.6374 6.51335 16.3885 6.63942 16.236L6.94265 15.8668L6.412 15.2206L6.10877 15.5898C5.98269 15.7434 5.77917 15.7434 5.65392 15.5908C5.52785 15.4373 5.52867 15.1895 5.65474 15.036L5.95797 14.6667L5.42815 14.0216L5.12492 14.3908C4.99884 14.5443 4.79532 14.5443 4.66925 14.3908C4.544 14.2383 4.54318 13.9895 4.66925 13.836L4.97248 13.4667L4.44265 12.8216L4.13942 13.1908C4.01335 13.3443 3.80982 13.3443 3.68375 13.1908C3.5585 13.0383 3.5585 12.7895 3.68457 12.6369L3.9878 12.2677L3.45797 11.6225L3.15474 11.9918C3.02867 12.1453 2.82515 12.1453 2.69908 11.9928C2.573 11.8393 2.57383 11.5924 2.6999 11.4389L3.76038 10.1466C3.88563 9.99408 4.08915 9.99308 4.2144 10.1466C4.34047 10.3001 4.34047 10.5469 4.2144 10.7004L3.91117 11.0697L4.441 11.7148L4.74423 11.3456C4.86948 11.1931 5.073 11.1931 5.19825 11.3456C5.32432 11.4991 5.32432 11.747 5.19908 11.8995L4.89585 12.2687L5.42567 12.9139L5.7289 12.5446C5.85415 12.3921 6.0585 12.3921 6.18375 12.5456C6.30982 12.6991 6.30982 12.947 6.18457 13.0995L5.88134 13.4687L6.41117 14.1139L6.7144 13.7447C6.83965 13.5921 7.04318 13.5921 7.16925 13.7447C7.29449 13.8972 7.29449 14.145 7.16925 14.2975L6.86602 14.6667L7.39667 15.3129L7.6999 14.9437C7.82515 14.7912 8.02867 14.7912 8.15392 14.9437C8.27917 15.0962 8.27917 15.344 8.15392 15.4975L7.09344 16.7889C6.96737 16.9424 6.76384 16.9424 6.63859 16.7899Z" fill="#000"/>
</g>
<g clip-path="url(#clip1_1851_2103)">
<path d="M17.9725 9.10847L17.5193 8.55662C17.3374 8.49628 17.1627 8.39327 17.0074 8.24464C16.9313 8.17179 16.8237 8.17547 16.7555 8.25935L12.1993 13.8073C12.1347 13.886 12.1244 14.0111 12.1782 14.1009C12.3407 14.3739 12.5329 14.649 12.751 14.9147C12.9692 15.1803 13.1951 15.4135 13.4193 15.6122C13.493 15.6777 13.5958 15.6652 13.6604 15.5864L18.2166 10.0385C18.2849 9.95537 18.2885 9.8244 18.2287 9.73169C18.1066 9.54185 18.022 9.32994 17.9725 9.10847ZM16.4135 10.5757C16.3857 10.6051 16.344 10.6029 16.318 10.5712C16.292 10.5396 16.2902 10.4881 16.3144 10.455L17.3809 8.95689L17.6437 9.27697L16.4135 10.5757Z" fill="#000"/>
<path d="M19.9395 6.39997L19.7437 6.16157C19.6621 6.06224 19.5304 6.06371 19.45 6.16378L17.6638 8.39472H17.6657L18.1056 8.93038L19.9377 6.75757C20.0199 6.65971 20.0211 6.49857 19.9395 6.39997Z" fill="#000"/>
</g>
<g clip-path="url(#clip2_1851_2103)">
<path d="M7.52444 4.43821C7.03828 4.88438 6.77076 5.87771 7.13771 6.93458C7.59695 7.68911 8.25285 8.25501 9.01203 8.52257C8.32921 7.52858 8.0073 6.1252 7.99577 4.17868C7.82822 4.21814 7.67001 4.30443 7.52444 4.43821Z" fill="#000"/>
<path d="M9.99203 0C9.88436 0.000668909 9.77944 0.0775935 9.75362 0.0976608C9.75142 0.0989986 9.74978 0.101005 9.74758 0.102343C9.74703 0.103012 9.7322 0.113046 9.70693 0.134451C9.69759 0.143147 9.6899 0.149836 9.68331 0.155187C9.56795 0.256192 9.31306 0.50904 9.06147 0.959885C8.98016 1.10571 8.89502 1.28029 8.81317 1.48632C9.34162 1.47428 9.57454 1.36056 9.90359 1.20069C10.1546 1.07828 10.4672 0.925771 10.9891 0.787306C11.3785 0.684294 11.7279 0.698341 12.0289 0.771921C11.5302 0.350508 10.9385 0.0802691 10.2986 0.0153849C10.2837 0.0140471 10.2689 0.0127093 10.2541 0.0113715C10.2217 0.00869582 10.1887 0.00602018 10.1563 0.00468237C10.1184 0.00267564 10.0805 0.00133782 10.0426 0.00133782C10.0288 0.000668909 10.0157 0 10.0019 0C9.99862 0 9.99533 0 9.99203 0Z" fill="#000"/>
<path d="M7.29647 4.07029C7.49038 3.89236 7.72989 3.7626 8.00181 3.71644C8.01005 3.48165 8.02653 3.25891 8.05015 3.04887C7.24483 3.07696 6.81306 3.26426 6.50818 3.47764C6.46149 3.75858 6.43677 4.04956 6.43677 4.34789C6.43677 4.80275 6.49445 5.24155 6.60102 5.6536C6.60431 5.61547 6.60761 5.57735 6.61255 5.53989C6.68781 4.92784 6.93062 4.40609 7.29647 4.07029Z" fill="#000"/>
<path d="M9.6476 5.06364C9.22352 4.5332 8.78296 4.22951 8.37371 4.16597C8.38524 6.34928 8.77966 7.75868 9.66408 8.67508C9.7756 8.68779 9.88821 8.69515 10.0019 8.69515C10.0162 8.69515 10.0299 8.69448 10.0437 8.69381C10.0827 8.69314 10.1211 8.69247 10.1596 8.69047C10.1947 8.68846 10.2304 8.68578 10.265 8.68244C10.2799 8.6811 10.2942 8.67976 10.309 8.67843C10.3529 8.67374 10.3963 8.66839 10.4397 8.6617C11.0687 8.56672 11.6477 8.2724 12.1317 7.83226C11.6109 7.33726 10.7666 6.46367 9.6476 5.06364Z" fill="#000"/>
<path d="M12.8348 1.70773C12.5563 1.4502 11.9295 1.01072 11.0698 1.23815C10.5787 1.36792 10.2947 1.50638 10.0442 1.62879C9.68111 1.80606 9.38777 1.94853 8.70935 1.94853C8.69122 1.94853 8.67254 1.94853 8.65441 1.94786C8.59728 2.14118 8.5451 2.35456 8.50225 2.58801C8.93347 2.60072 9.42073 2.64888 9.96786 2.73316C11.9042 3.03083 12.9864 3.67833 13.566 4.19406C13.5396 3.26093 13.271 2.40205 12.8348 1.70773Z" fill="#000"/>
<path d="M7.37008 1.42076C7.36953 1.42009 7.36898 1.41943 7.36843 1.41809C7.05257 1.84017 6.80427 2.33851 6.64332 2.88768C6.78504 2.81878 6.94819 2.75724 7.14156 2.70774C7.42117 2.63684 7.74472 2.59671 8.11497 2.58734C8.15617 2.34653 8.20616 2.12512 8.26164 1.92178C7.86942 1.86157 7.57004 1.69368 7.37008 1.42076Z" fill="#000"/>
<path d="M12.4316 7.52857C13.0518 6.82421 13.466 5.85429 13.5517 4.76798C13.1155 4.29707 12.0943 3.52582 9.92007 3.19137C9.32899 3.10039 8.84064 3.05625 8.43248 3.04688C8.40776 3.25357 8.38964 3.47364 8.38085 3.70776C8.84558 3.76328 9.37568 4.06229 9.91897 4.74257C11.066 6.17804 11.9279 7.05632 12.4316 7.52857Z" fill="#000"/>
<path d="M8.76318 0.675598C8.88953 0.452851 9.01587 0.274253 9.13013 0.132444C8.56762 0.305023 8.05949 0.640815 7.63925 1.09434C7.64529 1.10303 7.65079 1.11173 7.65738 1.12042C7.80954 1.3231 8.05949 1.44217 8.40117 1.47561C8.51653 1.15119 8.64398 0.885636 8.76318 0.675598Z" fill="#000"/>
</g>
<defs>
<clipPath id="clip0_1851_2103">
<rect width="13.0437" height="10.7119" fill="#000" transform="matrix(0 1 -1 0 10.7119 6.95703)"/>
</clipPath>
<clipPath id="clip1_1851_2103">
<rect width="7.85542" height="9.5654" fill="#000" transform="translate(12.1445 6.08789)"/>
</clipPath>
<clipPath id="clip2_1851_2103">
<rect width="7.14129" height="8.69582" fill="#000" transform="translate(6.43066)"/>
</clipPath>
</defs>
</svg>
