<svg xmlns="http://www.w3.org/2000/svg" width="32" height="33" viewBox="0 0 32 33" fill="none">
  <path d="M22.1333 8.23656C21.2219 7.19606 20.7196 5.85981 20.72 4.47656H16.6V21.0099C16.5682 21.9046 16.1905 22.7521 15.5463 23.3738C14.9022 23.9956 14.0419 24.3431 13.1466 24.3432C11.2533 24.3432 9.67997 22.7966 9.67997 20.8766C9.67997 18.5832 11.8933 16.8632 14.1733 17.5699V13.3566C9.5733 12.7432 5.54663 16.3166 5.54663 20.8766C5.54663 25.3166 9.22663 28.4766 13.1333 28.4766C17.32 28.4766 20.72 25.0766 20.72 20.8766V12.4899C22.3906 13.6897 24.3965 14.3334 26.4533 14.3299V10.2099C26.4533 10.2099 23.9466 10.3299 22.1333 8.23656Z" fill="#000"/>
</svg>