<svg xmlns="http://www.w3.org/2000/svg" width="20" height="20" viewBox="0 0 20 20" fill="none">
  <path d="M10.0001 1.66699C5.40008 1.66699 1.66675 5.40033 1.66675 10.0003C1.66675 14.6003 5.40008 18.3337 10.0001 18.3337C14.6001 18.3337 18.3334 14.6003 18.3334 10.0003C18.3334 5.40033 14.6001 1.66699 10.0001 1.66699ZM10.0001 4.16699C11.3834 4.16699 12.5001 5.28366 12.5001 6.66699C12.5001 8.05033 11.3834 9.16699 10.0001 9.16699C8.61675 9.16699 7.50008 8.05033 7.50008 6.66699C7.50008 5.28366 8.61675 4.16699 10.0001 4.16699ZM10.0001 16.0003C7.91675 16.0003 6.07508 14.9337 5.00008 13.317C5.02508 11.6587 8.33342 10.7503 10.0001 10.7503C11.6584 10.7503 14.9751 11.6587 15.0001 13.317C13.9251 14.9337 12.0834 16.0003 10.0001 16.0003Z" fill="#000"/>
</svg>